<?xml version="1.0" encoding="utf-8"?>
<!-- Generator: Adobe Illustrator 24.0.1, SVG Export Plug-In . SVG Version: 6.00 Build 0)  -->
<svg version="1.1" id="Layer_1" xmlns="http://www.w3.org/2000/svg" xmlns:xlink="http://www.w3.org/1999/xlink" x="0px" y="0px"
	 viewBox="0 0 1000 1000" style="enable-background:new 0 0 1000 1000;" xml:space="preserve">
<style type="text/css">
	.st0{fill:#F8BB26;}
</style>
<rect x="1217.1" y="-628.9" width="1002.7" height="1002.7"/>
<g>
	<g>
		<g>
			<g>
				<path class="st0" d="M425.4,495c-2,3.2-4,6.3-6,9.4c-1,1.6-2.2,3.1-3.3,4.6c-34.6-16.7-69.1-33.3-103.7-49.9
					c19.1-39.6,38.1-79.2,57.2-118.9c0.5,0,1.2,0.2,1.8,0.4c2.8,1,4.2,1.8,7.4,3.4c0.7,0.3,3.2,1.8,3.8,2.2
					c3.6,2.1,7.2,4.4,10.5,6.9c22.4,16.7,36.9,38.6,42.9,65.9c4.2,19,3.3,37.9-2.6,56.5c-1.1,3.3-2.3,6.7-3.4,10
					C428.5,488.6,426.9,491.8,425.4,495z"/>
				<path class="st0" d="M406,520.7c-16.2,15.9-35.3,25.9-57.4,30.2c-28.7,5.5-56.9-1.8-74.4-12.4c10.6-21.9,21.1-43.9,31.7-65.9
					C339.1,488.5,372.4,504.5,406,520.7z"/>
				<path class="st0" d="M221.1,415.1c5.5-21.7,16.7-40.1,33.3-55c14.8-13.4,32.2-22,52.1-26.1c-16,33.2-31.8,66.2-47.8,99.2
					C246.3,427.2,233.8,421.2,221.1,415.1z"/>
				<path class="st0" d="M218.3,430.3c11.5,5.5,22.7,10.9,34,16.3c-7.4,15.4-14.8,30.6-22.3,46.3
					C219.9,473.1,216.1,452.4,218.3,430.3z"/>
			</g>
		</g>
		<g>
			<g>
				<path class="st0" d="M230.4,592.4c14.4,0,26,11.7,26,26c0,14.4-11.7,26-26,26c-14.4,0-26-11.7-26-26
					C204.4,604,216,592.4,230.4,592.4z"/>
				<path class="st0" d="M325.6,592.4c14.4,0,26,11.7,26,26c0,14.4-11.7,26-26,26c-14.4,0-26-11.7-26-26
					C299.6,604,311.2,592.4,325.6,592.4z"/>
				<path class="st0" d="M420.9,592.4c14.4,0,26,11.7,26,26c0,14.4-11.7,26-26,26s-26-11.7-26-26C394.8,604,406.5,592.4,420.9,592.4
					z"/>
			</g>
			<g>
				<path class="st0" d="M564,614.1c-0.2-0.7-0.2-1.5-0.3-2.2c-0.1-0.9-0.1-1.9-0.1-2.8c0-0.7-0.1-1.3-0.1-2c0-0.9,0-1.9,0-2.8l0,0
					c1.4-19.9,17.9-35.4,38.2-35.4c19.7,0,35.9,14.5,38,34.2h3.8c2.2-19.7,18.4-34.2,38-34.2c21.2,0,38.3,17,38.3,38.2
					c0,21.2-17.1,38.5-38.3,38.5c-11.1,0-21-4.8-28-12.3c-5.4-5.8-9.1-13.3-10-21.4h-3.8c-0.9,7.6-4.1,14.5-8.9,20.1
					c-7,8.2-17.5,13.5-29.2,13.5c-18.7,0-34.2-13.5-37.6-31.2"/>
				<path class="st0" d="M865.4,630.3l-42.3-54.6v0h0h-3.6v-3.3h3.3c0,0,7.8-28.3,0.8-58.6h27.1c0,0,3.3-3.3,3.3-14.2
					c0-9.8-3.3-14.2-3.3-14.2h-35v21.4h-10.6l-7.4-14.3v-8.8l23-64.6v-4.4l-9.8-13.1h-27.4H756l-9.8,13.1v4.4l23,64.6v8.8l-7.4,14.3
					h-31v-0.1c0,0-12.4-2.1-17.7-17v-12.2h-19.6v12.2c-5.4,14.9-18.4,17-18.4,17v0.1h-40.5v-85.4h6.6v-10.7H506.5v10.7h5.5v63.5
					h-8.2v12.8v2.8v7.4h8.2v3.2v88.7v7.3v18.9v3.4h5.5h9.5h14.8l0.1-3.3l-3.6-3.3v-7.5l2.2-4.6h9.9c-0.2-1.7-0.3-3.4-0.3-5.1
					c0-28.6,23.2-51.8,51.8-51.8c16.2,0,30.7,7.5,40.2,19.2c9.5-11.5,23.9-18.8,39.9-18.8c28.6,0,51.8,23.2,51.8,51.8
					c0,6.7-1.3,13.1-3.6,19H783v-12c0,0,0,0,0,0h13.1c2.4-5.9,6.1-9.7,9.9-12.1v29.5H865.4z"/>
			</g>
		</g>
		<path class="st0" d="M350.1,103.2c5.8-16.1,21.2-27.6,39.3-27.6c21.8,0,39.7,16.7,41.6,38.1c11.9-7.3,26-11.5,41-11.5
			c43.5,0,78.8,35.3,78.8,78.8c0,2.1-0.1,4.1-0.3,6.1c2.6-0.3,5.2-0.4,7.9-0.4c8.3,0,16.3,1.4,23.8,3.9c14.3-19.3,37.2-31.9,63-31.9
			c35.6,0,65.7,23.8,75.2,56.4c5.1-1.8,10.7-2.8,16.4-2.8c27.8,0,50.3,22.5,50.3,50.3c0,3.5-0.4,7-1.1,10.3
			c9.2,1.8,16.1,9.9,16.1,19.6c0,8.3-5.1,15.5-12.4,18.5c0.5,1.5,0.7,3.1,0.7,4.8c0,6.5-3.8,12.1-9.4,14.6c3.5,4.1,5.6,9.4,5.6,15.3
			c0,2.5-0.4,4.9-1.1,7.2c0.3,0,0.6-0.1,0.9-0.1c4.7,0,8.5,3.8,8.5,8.5c0,1.6-0.4,3.1-1.2,4.3c2.8,2.2,4.7,5.6,4.7,9.4
			c0,6.6-5.3,11.9-11.9,11.9c-6.6,0-11.9-5.3-11.9-11.9c0-3.7,1.7-7.1,4.4-9.3c-0.4-0.7-0.7-1.4-0.9-2.1c-4.1,3.5-9.5,5.7-15.4,5.7
			c-13.1,0-23.7-10.6-23.7-23.7c0-4.6,1.4-9,3.7-12.6c-2.1,0.3-4.3,0.5-6.5,0.5c-21.2,0-38.6-15.8-41.2-36.3
			c-13.6,11.2-31,18-49.9,18c-10,0-19.6-1.9-28.5-5.4c-13.8,16.9-34.9,27.7-58.4,27.7c-41.7,0-75.5-33.8-75.5-75.5
			c0-1.1,0-2.1,0.1-3.2c-3.6,0.5-7.3,0.8-11,0.8c-34.9,0-64.5-22.7-74.9-54.2c-10.4,9.2-24.1,14.8-39,14.8
			c-32.5,0-58.9-26.4-58.9-58.9C299.2,131.7,321.3,107.1,350.1,103.2z"/>
	</g>
	<g>
		<path class="st0" d="M352.2,695.3c-2.8,0-5.1,0.1-6.8,0.4l-9.5,49.3c1.9,0.3,4.2,0.4,7,0.4c8.7,0,16.4-3.1,21.3-8.8
			c5.1-5.8,7.8-13.6,7.8-22.6C372,702.3,365.4,695.3,352.2,695.3z"/>
		<path class="st0" d="M731.1,695.4h-0.2c-1.9,4.6-4,10.3-6,14.7l-7.5,16.1h16.2l-1.4-16.1C731.9,705.9,731.5,699.9,731.1,695.4z"/>
		<path class="st0" d="M286.5,695c-3,0-4.9,0.2-6.2,0.6l-4,20.7h6.7c8.7,0,15-5.2,15-12.6C298,697.7,292.8,695,286.5,695z"/>
		<path class="st0" d="M151.3,695.1c-3,0-5.1,0.2-6.5,0.6l-4.2,22.1c1.7,0.3,3.4,0.6,6.1,0.6c9.7,0,16-6.2,16-13.7
			C162.8,697.5,157.5,695.1,151.3,695.1z"/>
		<path class="st0" d="M82.7,663.6L60.9,775.2h863.2l21.4-111.6H82.7z M168.7,724.4c-6.1,4.8-14.8,6.9-23.9,6.9
			c-2.7,0-4.9-0.2-6.6-0.4l-5.1,27h-15.7l13.9-73.6c4.8-1.2,12.4-2,19.6-2c6.7,0,14.5,1.1,19.9,5c5,3.5,8.1,8.7,8.1,15.9
			C178.9,712.7,174.6,719.8,168.7,724.4z M244.1,725.5c-4.3,22.7-14.4,33.6-34.7,33.6c-15.5,0-24.9-7.9-24.9-23.9
			c0-3.2,0.4-6.9,1.1-10.5l7.9-41.8h16l-8.2,43.2c-0.6,2.6-0.8,5.6-0.8,8.9c0,6,3.7,10.7,10.9,10.7c8.3,0,13.9-5.6,16.6-19.5
			l8.2-43.3h16L244.1,725.5z M297.6,722.5v0.4c4.5,1.9,6.3,6.9,7.1,13.7c0.9,8.3,1.6,18.1,2.9,21.3h-16.5c-0.7-2-1.4-8.5-2.2-17.7
			c-0.7-9.1-3.8-11.9-10.1-11.9h-4.9l-5.6,29.6h-15.9l14.1-73.6c5-1.2,12.6-2,20-2c7.1,0,14.5,1.1,19.7,4.3
			c4.9,2.9,8.3,7.7,8.3,14.7C314.7,712.5,307.2,719.4,297.6,722.5z M374,748.4c-8.7,6.9-19.7,9.9-35.9,9.9c-9,0-16.8-0.7-20.5-1.3
			l13.9-73c6.3-1.1,13.5-1.7,20.7-1.7c11.7,0,21,2.7,27.4,8.1c6,5,9.8,12.5,9.9,23.5C389.4,728.4,383.3,741,374,748.4z M457.6,725.5
			c-4.3,22.7-14.4,33.6-34.7,33.6c-15.5,0-24.9-7.9-24.9-23.9c0-3.2,0.4-6.9,1.1-10.5l7.9-41.8h16l-8.2,43.2
			c-0.6,2.6-0.8,5.6-0.8,8.9c0,6,3.7,10.7,10.9,10.7c8.3,0,13.9-5.6,16.6-19.5l8.2-43.3h16L457.6,725.5z M522,696.6h-28.3l-3.1,16
			h26.7l-2.6,13.5H488l-3.4,18.1h29.9l-2.6,13.7h-46l14.2-75h44.4L522,696.6z M578.9,714c9.1,4.8,14.9,10.9,14.9,19.8
			c0,16.7-13.8,25.3-30.5,25.3c-10.5,0-17.9-2.7-21.5-5.3l5.3-13.1c4.5,2.7,10.8,4.8,17.7,4.8c6.2,0,11.9-2.9,11.9-8.8
			c0-4.2-3.2-7-10.1-10.6c-8-4.3-15.6-10.1-15.6-19.9c0-15.1,13.2-24.4,29.6-24.4c9.1,0,14.5,2,17.7,3.8l-5,13.4
			c-2.4-1.3-7.8-3.5-14-3.3c-7.5,0-11.3,3.8-11.3,7.9C568,707.7,572.6,710.4,578.9,714z M663.4,757.9l4.6-30.9
			c1.2-8.1,2.9-18.5,5-29.3h-0.3c-4.1,9.7-8.8,20-12.9,28.3l-15.4,30.7h-12.5l-2.7-30.4c-0.7-8.2-1.2-18.6-1.7-28.6h-0.2
			c-2.1,9.9-4.3,21.1-6.2,29.3l-7.5,30.9H599l18.8-75h21.5l2.3,28.5c0.4,7,1.2,15.6,1.3,23.9h0.4c2.9-8.3,6.9-17.1,10.1-23.9
			l13.9-28.5h21.7l-10.1,75H663.4z M735.9,757.9l-1.6-19.5h-21.6l-8.9,19.5h-17l36.5-75h20.6l8.8,75H735.9z M795.8,714
			c9.1,4.8,14.9,10.9,14.9,19.8c0,16.7-13.8,25.3-30.5,25.3c-10.5,0-17.9-2.7-21.5-5.3l5.3-13.1c4.5,2.7,10.8,4.8,17.7,4.8
			c6.2,0,11.9-2.9,11.9-8.8c0-4.2-3.2-7-10.1-10.6c-8-4.3-15.6-10.1-15.6-19.9c0-15.1,13.2-24.4,29.6-24.4c9.1,0,14.5,2,17.7,3.8
			l-5,13.4c-2.4-1.3-7.8-3.5-14-3.3c-7.5,0-11.3,3.8-11.3,7.9C784.9,707.7,789.5,710.4,795.8,714z M876.9,757.9h-16l5.9-31.5h-27.2
			l-6,31.5h-16l14.2-75h16l-5.6,29.3h27.3l5.6-29.3h16L876.9,757.9z"/>
	</g>
	<path class="st0" d="M484.6,489.1H166v13h6.7v3.9v124.5h18.6l1.2,0c-1.2-3.8-1.9-7.9-1.9-12.1c0-21.7,17.6-39.3,39.3-39.3
		c20.8,0,37.9,16.2,39.2,36.8h17c1.3-20.5,18.3-36.8,39.2-36.8c20.8,0,37.9,16.2,39.2,36.8h17.2c1.3-20.5,18.3-36.8,39.2-36.8
		c21.7,0,39.3,17.6,39.3,39.3c0,4.5-0.8,8.7-2.1,12.7l18.1,0v0h1.9V506v-3.9h6.6V489.1z"/>
</g>
<text transform="matrix(1 0 0 1 436.9544 1224.8619)" style="font-family:'MyriadPro-BoldIt'; font-size:120.7418px;">Wii U</text>
<text transform="matrix(1 0 0 1 -63.1606 1198.8472)" style="font-family:'MyriadPro-BoldIt'; font-size:120.7418px;">MELEE</text>
<g>
	<path class="st0" d="M284.6,806.1l-8.7,45.6c-0.6,2.7-0.8,5.9-0.8,9.4c0,6.4,3.9,11.3,11.5,11.3c8.8,0,14.7-5.9,17.5-20.6l8.7-45.8
		h16.9l-8.6,45c-4.6,24-15.2,35.5-36.7,35.5c-16.3,0-26.3-8.4-26.3-25.3c0-3.4,0.5-7.3,1.2-11.1l8.4-44.2H284.6z"/>
	<path class="st0" d="M345,806.1H362l-12.2,64.5h30.5l-2.8,14.8H330L345,806.1z"/>
	<path class="st0" d="M402.3,821h-20.9l2.9-14.8h58.9l-2.8,14.8h-21.2l-12.1,64.5h-16.9L402.3,821z"/>
	<path class="st0" d="M469.3,806.1l-15.1,79.3h-16.9l15.1-79.3H469.3z"/>
	<path class="st0" d="M536.1,885.4l4.8-32.7c1.3-8.6,3.1-19.5,5.3-30.9h-0.4c-4.4,10.2-9.3,21.2-13.6,29.9L516,884.1h-13.2L500,852
		c-0.7-8.7-1.3-19.6-1.8-30.2H498c-2.2,10.5-4.6,22.3-6.6,30.9l-7.9,32.7H468l19.9-79.3h22.7l2.5,30.1c0.5,7.4,1.3,16.5,1.4,25.3
		h0.5c3.1-8.8,7.3-18.1,10.7-25.3l14.7-30.1h22.9l-10.7,79.3H536.1z"/>
	<path class="st0" d="M588.4,864.8l-9.4,20.6h-18l38.6-79.3h21.8l9.3,79.3h-17.8l-1.6-20.6H588.4z M610.5,851.9l-1.5-17.1
		c-0.4-4.4-0.8-10.7-1.2-15.5h-0.2c-2,4.8-4.2,10.9-6.4,15.5l-7.9,17.1H610.5z"/>
	<path class="st0" d="M658.3,821h-20.9l2.9-14.8h58.9l-2.8,14.8h-21.2l-12.1,64.5h-16.9L658.3,821z"/>
	<path class="st0" d="M745.3,851.8H717l-3.6,19.2H745l-2.7,14.5h-48.6l15.1-79.3h46.9l-2.8,14.5H723l-3.3,16.9H748L745.3,851.8z"/>
</g>
<rect x="-782.9" y="186" class="st0" width="402" height="376.5"/>
<text transform="matrix(1 0 0 1 -832.7773 1040.8398)" class="st0" style="font-family:'MyriadPro-BoldIt'; font-size:117.6152px;">ULTIMATE</text>
</svg>
