<?xml version="1.0" encoding="utf-8"?>
<!-- Generator: Adobe Illustrator 24.0.1, SVG Export Plug-In . SVG Version: 6.00 Build 0)  -->
<svg version="1.1" id="Layer_1" xmlns="http://www.w3.org/2000/svg" xmlns:xlink="http://www.w3.org/1999/xlink" x="0px" y="0px"
	 viewBox="0 0 1162.7 538.6" style="enable-background:new 0 0 1162.7 538.6;" xml:space="preserve">
<style type="text/css">
	.st0{fill:none;stroke:#000000;stroke-width:7;stroke-miterlimit:10;}
	.st1{fill:none;stroke:#BAA892;stroke-width:3;stroke-miterlimit:10;}
	.st2{fill:#F8BB26;}
	.st3{fill:#89620C;}
	.st4{fill:#BAA892;}
</style>
<g>
	<g>
		<path d="M-1144,754.8c0-0.5,0-1.6,0-1.6s1.2,0,1.7,0h46.8c0.4,0,0.8,0.1,1.2,0.4c0.3,0.3,0.5,0.7,0.6,1.2v8.9
			c0,0.4-0.2,0.8-0.5,1.2c-0.3,0.4-0.7,0.6-1.3,0.6h-20.4V805c0,0.4-0.2,0.8-0.5,1.2c-0.3,0.3-0.7,0.5-1.2,0.5h-10.6
			c-0.4,0-0.8-0.2-1.1-0.5s-0.5-0.7-0.5-1.2v-39.4h-12.4c-0.5,0-0.9-0.2-1.2-0.5c-0.3-0.3-0.5-0.8-0.5-1.4V754.8z"/>
		<path d="M-1099.2,754.8c0-0.4,0.2-0.8,0.5-1.1c0.3-0.3,0.6-0.5,1.1-0.5h10.7c0.4,0,1.7,0,1.7,0s0,1.1,0,1.6v17.1h17.9v-17.1
			c0-0.4,0-1.6,0-1.6s1.1,0,1.6,0h10.5c0.5,0,1.8,0,1.8,0s0,1,0,1.5v50.4c0,0.5-0.2,0.9-0.5,1.2c-0.3,0.3-0.7,0.4-1.2,0.4h-10.6
			c-0.5,0-0.9-0.1-1.2-0.4c-0.3-0.3-0.4-0.7-0.4-1.2v-20.4h-17.9v20.4c0,0.5-0.2,0.9-0.5,1.2c-0.3,0.3-0.8,0.4-1.3,0.4h-10.6
			c-1,0-1.5-0.5-1.5-1.4V754.8z"/>
		<path d="M-1049.8,754.9c0-0.5,0-1.7,0-1.7s1.1,0,1.6,0h23.3c2.5,0,4.8,0.5,6.9,1.4c2.2,0.9,4,2.2,5.7,3.8c1.6,1.6,2.9,3.4,3.8,5.6
			c0.9,2.1,1.4,4.4,1.4,6.8c0,1.6-0.2,3.2-0.7,4.7c-0.4,1.5-1.1,2.9-1.9,4.1c-0.8,1.3-1.7,2.4-2.8,3.5c-1.1,1-2.3,1.9-3.6,2.7
			l9.3,17.4c0.2,0.3,0.4,0.7,0.6,1.2c0.3,0.5,0.4,0.9,0.4,1.2c0,0.4-0.1,0.7-0.4,0.9c-0.3,0.2-0.6,0.3-1,0.3h-12.3
			c-0.4,0-0.8-0.1-1.1-0.4c-0.3-0.2-0.5-0.6-0.6-1l-8.7-16.5h-5.8v16.2c0,1-0.6,1.5-1.7,1.5h-10.7c-0.5,0-0.9-0.1-1.2-0.4
			c-0.3-0.3-0.4-0.6-0.4-1.2V754.9z M-1021.6,770.9c0-0.7-0.1-1.4-0.4-2.2c-0.3-0.7-0.6-1.4-1.1-2c-0.5-0.6-1.1-1.1-1.7-1.5
			c-0.7-0.4-1.4-0.7-2.2-0.8c-0.7,0-1.3-0.1-1.9-0.1c-0.6,0-1.2-0.1-1.9-0.1h-5v13.2h6.6c0.4,0,0.8,0,1.2,0c0.3,0,0.7-0.1,1.1-0.1
			c0.8-0.1,1.6-0.3,2.3-0.7c0.7-0.4,1.2-0.9,1.7-1.5c0.5-0.6,0.8-1.2,1-2C-1021.8,772.4-1021.6,771.6-1021.6,770.9z"/>
		<path d="M-1008.9,780c0-2.5,0.3-5,1-7.3c0.6-2.3,1.6-4.5,2.8-6.6c1.2-2.1,2.6-3.9,4.3-5.6c1.7-1.7,3.5-3.1,5.6-4.3
			c2-1.2,4.2-2.1,6.6-2.8c2.3-0.7,4.8-1,7.3-1c2.5,0,5,0.3,7.3,1c2.4,0.7,4.6,1.6,6.6,2.8c2,1.2,3.9,2.6,5.6,4.3
			c1.7,1.7,3.1,3.5,4.3,5.6c1.2,2.1,2.1,4.2,2.8,6.6c0.7,2.3,1,4.8,1,7.3s-0.3,5-1,7.3c-0.7,2.3-1.6,4.5-2.8,6.6
			c-1.2,2-2.6,3.9-4.3,5.5c-1.7,1.7-3.5,3.1-5.6,4.3c-2,1.2-4.2,2.1-6.6,2.8s-4.8,1-7.3,1c-2.5,0-5-0.3-7.3-1s-4.5-1.6-6.6-2.8
			c-2-1.2-3.9-2.6-5.6-4.3c-1.7-1.7-3.1-3.5-4.3-5.5c-1.2-2-2.1-4.2-2.8-6.6C-1008.6,785-1008.9,782.5-1008.9,780z M-995,780
			c0,2,0.3,3.9,1,5.6c0.7,1.7,1.6,3.2,2.8,4.5c1.2,1.3,2.6,2.3,4.3,3c1.7,0.7,3.5,1.1,5.5,1.1c2,0,3.8-0.4,5.5-1.1
			c1.7-0.7,3.1-1.7,4.3-3c1.2-1.3,2.2-2.8,2.8-4.5s1-3.6,1-5.6c0-2-0.3-3.8-1-5.6c-0.7-1.7-1.6-3.3-2.8-4.6
			c-1.2-1.3-2.6-2.3-4.3-3.1c-1.7-0.7-3.5-1.1-5.5-1.1c-2,0-3.8,0.4-5.5,1.1c-1.7,0.7-3.1,1.8-4.3,3.1s-2.2,2.8-2.8,4.6
			C-994.7,776.1-995,778-995,780z"/>
		<path d="M-839.2,780c0,2.5-0.3,5-1,7.3s-1.6,4.4-2.8,6.4c-1.2,2-2.6,3.8-4.3,5.4c-1.7,1.6-3.5,3-5.5,4.1c-2,1.1-4.2,2-6.6,2.6
			c-2.4,0.6-4.8,0.9-7.3,0.9h-17.7c-0.4,0-0.8-0.1-1.2-0.3c-0.3-0.2-0.5-0.6-0.5-1.2v-50.3c0-0.5,0.1-0.9,0.4-1.2s0.7-0.5,1.2-0.5
			h17.7c2.5,0,5,0.3,7.3,0.9c2.3,0.6,4.5,1.5,6.6,2.7c2,1.2,3.9,2.5,5.6,4.1c1.7,1.6,3.1,3.4,4.3,5.4c1.2,2,2.1,4.1,2.8,6.4
			C-839.5,775.1-839.2,777.5-839.2,780z M-872.1,766.1v27.7h3c0.6,0,1.1,0,1.6-0.1c0.5,0,1.1-0.1,1.6-0.1c1.8-0.1,3.5-0.6,5-1.3
			c1.6-0.7,2.9-1.7,4.1-2.9s2.1-2.6,2.7-4.2c0.7-1.6,1-3.4,1-5.3c0-2-0.4-3.9-1.1-5.6c-0.8-1.7-1.8-3.2-3.1-4.4
			c-1.3-1.2-2.8-2.2-4.6-2.9s-3.6-1-5.6-1H-872.1z"/>
		<path d="M-839.5,780c0-2.5,0.3-5,1-7.3c0.6-2.3,1.6-4.5,2.8-6.6c1.2-2.1,2.6-3.9,4.3-5.6c1.7-1.7,3.5-3.1,5.6-4.3
			c2-1.2,4.2-2.1,6.6-2.8c2.3-0.7,4.8-1,7.3-1c2.5,0,5,0.3,7.3,1c2.4,0.7,4.6,1.6,6.6,2.8c2,1.2,3.9,2.6,5.6,4.3
			c1.7,1.7,3.1,3.5,4.3,5.6c1.2,2.1,2.1,4.2,2.8,6.6c0.7,2.3,1,4.8,1,7.3s-0.3,5-1,7.3c-0.7,2.3-1.6,4.5-2.8,6.6
			c-1.2,2-2.6,3.9-4.3,5.5c-1.7,1.7-3.5,3.1-5.6,4.3c-2,1.2-4.2,2.1-6.6,2.8s-4.8,1-7.3,1c-2.5,0-5-0.3-7.3-1s-4.5-1.6-6.6-2.8
			c-2-1.2-3.9-2.6-5.6-4.3c-1.7-1.7-3.1-3.5-4.3-5.5c-1.2-2-2.1-4.2-2.8-6.6C-839.1,785-839.5,782.5-839.5,780z M-825.5,780
			c0,2,0.3,3.9,1,5.6c0.7,1.7,1.6,3.2,2.8,4.5c1.2,1.3,2.6,2.3,4.3,3c1.7,0.7,3.5,1.1,5.5,1.1c2,0,3.8-0.4,5.5-1.1
			c1.7-0.7,3.1-1.7,4.3-3c1.2-1.3,2.2-2.8,2.8-4.5s1-3.6,1-5.6c0-2-0.3-3.8-1-5.6c-0.7-1.7-1.6-3.3-2.8-4.6
			c-1.2-1.3-2.6-2.3-4.3-3.1c-1.7-0.7-3.5-1.1-5.5-1.1c-2,0-3.8,0.4-5.5,1.1c-1.7,0.7-3.1,1.8-4.3,3.1s-2.2,2.8-2.8,4.6
			C-825.2,776.1-825.5,778-825.5,780z"/>
		<path d="M-715.8,754.8c0-0.4,0.1-0.8,0.4-1.1c0.3-0.3,0.7-0.5,1.2-0.5h11.8c0.3,0,1.2,0,1.2,0s0.5,0.7,0.8,1.1
			c3,4.9,6.1,9.8,9.1,14.5c3,4.8,6,9.6,9.1,14.5v-28.8l0-1.4c0,0,1.2,0,1.6,0h10.3c0.5,0,1.8,0,1.8,0s0,1.1,0,1.6v50.5
			c0,0.5-0.1,0.8-0.4,1.1c-0.3,0.2-0.7,0.3-1.2,0.3h-11.5c-0.3,0-0.6-0.1-0.8-0.3c-0.2-0.2-0.5-0.5-0.8-0.9
			c-3.2-5.3-6.3-10.5-9.5-15.7c-3.1-5.2-6.3-10.4-9.5-15.7v30.9c0,0.5-0.1,0.9-0.4,1.2c-0.2,0.3-0.7,0.4-1.3,0.4h-10.2
			c-0.6,0-1-0.1-1.2-0.5c-0.3-0.3-0.4-0.7-0.4-1.1V754.8z"/>
	</g>
	<g>
		<path d="M-916.2,773.2l-7.1,17.4c-0.8,2.2-1.6,4.3-2.4,6.4c-0.8,2.1-1.6,4.2-2.4,6.4c-0.1,0.3-0.3,0.7-0.4,1.1
			c-0.2,0.4-0.3,0.7-0.6,1c-0.2,0.3-0.5,0.6-0.7,0.8c-0.3,0.2-0.6,0.3-1,0.3h-0.1h-8.7c-0.8,0-1.3-0.3-1.5-0.8
			c-0.2-0.4-0.5-0.8-0.7-1.3c-0.2-0.4-0.4-0.9-0.6-1.3c-3.1-8.2-6.2-16.2-9.3-24.3c-3.1-8-9.3-24.5-9.3-24.6c0-0.1-0.4-1.3-0.4-1.3
			s0.8,0,1.7,0h11.6c0.9,0,1.4,0,1.4,0l11.5,34.2l10.6-34.2c0,0,0.6,0,1.6,0h11.7c0.6,0,1.9,0,1.9,0"/>
		<path d="M-885.3,753.5c-0.2-0.2-0.6-0.3-1.2-0.3h-11.3c-1,0-1.5,0-1.5,0l-12.2,34.1L-915,777l-7,17.4l-1.4-3.7l5.7,15
			c0.1,0.3,0.3,0.6,0.6,0.8c0.3,0.2,0.7,0.3,1.2,0.3h8.7h0.1c0.5,0,0.9-0.2,1.2-0.5c0.3-0.3,0.6-0.6,0.6-0.9c1.6-4.2,3.3-8.4,5-12.6
			c1.7-4.2,3.4-8.4,5.1-12.6c1.7-4.2,3.4-8.4,5.1-12.6c1.7-4.2,3.4-8.4,5-12.6v-0.1c0-0.1,0-0.2,0-0.4
			C-884.9,754-885,753.7-885.3,753.5z"/>
		<polygon points="-915,777 -916.2,773.2 -915,777 		"/>
	</g>
	<g>
		<path d="M-782.1,779.1c3.1,8,6.2,16.1,9.3,24.3c0.2,0.4,0.4,0.9,0.6,1.3c0.2,0.4,0.4,0.9,0.7,1.3c0.2,0.5,0.7,0.8,1.5,0.8h8.7h0.1
			c0.4,0,0.7-0.1,1-0.3c0.3-0.2,0.5-0.5,0.7-0.8c0.2-0.3,0.4-0.7,0.6-1c0.2-0.4,0.3-0.7,0.4-1.1c0.8-2.2,1.6-4.3,2.4-6.4
			c0.8-2.1,1.6-4.2,2.4-6.4l7.1-17.4l6.4-18.5c0-0.1,0.5-1.5,0.5-1.5s-1.4,0-2,0h-11.7c-1,0-1.6,0.5-2,1.4l-10.2,32.8l-11-32.8
			c-0.3-0.9-1-1.4-1.9-1.4h-11.6c-0.9,0-1.8,0-1.8,0s0.5,1.2,0.5,1.3"/>
		<path d="M-715.8,753.5c-0.2-0.2-0.6-0.3-1.2-0.3h-11.3c-1,0-1.5,0-1.5,0l-12.2,34.1l-3.5-10.4l-7,17.3l-1.4-3.7l5.7,15
			c0.1,0.3,0.3,0.6,0.6,0.8c0.3,0.2,0.7,0.3,1.2,0.3h8.7h0.1c0.5,0,0.9-0.2,1.2-0.5c0.3-0.3,0.6-0.6,0.6-0.9c1.6-4.2,3.3-8.4,5-12.6
			c1.7-4.2,3.4-8.4,5.1-12.6c1.7-4.2,3.4-8.4,5.1-12.6c1.7-4.2,3.4-8.4,5-12.6v-0.1c0-0.1,0-0.2,0-0.4
			C-715.4,754-715.5,753.7-715.8,753.5z"/>
		<polygon points="-745.5,777 -746.8,773.2 -745.5,777 		"/>
	</g>
	<rect x="-716.9" y="753.2" width="3.6" height="2"/>
	<rect x="-888.1" y="753.2" width="5.8" height="3.2"/>
</g>
<g>
	<path d="M-1089.4,816.2c0-0.5,0.2-0.9,0.5-1.1c0.3-0.3,0.7-0.4,1.2-0.4h38.7c0.4,0,0.8,0.1,1.2,0.4c0.3,0.3,0.5,0.7,0.6,1.2v8.9
		c0,0.4-0.2,0.8-0.5,1.2c-0.3,0.4-0.7,0.6-1.3,0.6h-12.4v39.4c0,0.4,0,1.7,0,1.7s-1.2,0-1.7,0h-10.6c-0.4,0-1.8,0-1.8,0
		s0.1-1.2,0.1-1.7v-39.4h-12.4c-0.5,0-0.9-0.2-1.2-0.5c-0.3-0.3-0.5-0.8-0.5-1.4V816.2z"/>
	<path d="M-1043.8,816.2c0-0.4,0.2-0.8,0.5-1.1c0.3-0.3,0.6-0.5,1.1-0.5h10.7c0.4,0,0.7,0.2,1.1,0.5c0.4,0.3,0.6,0.7,0.6,1.1v17.1
		h17.9v-17.1c0-0.4,0.1-0.8,0.4-1.1c0.3-0.3,0.7-0.5,1.2-0.5h10.5c0.5,0,0.9,0.1,1.3,0.4c0.4,0.2,0.5,0.6,0.5,1.2v50.4
		c0,0.5,0,1.6,0,1.6s-1.2,0-1.7,0h-10.6c-0.5,0-1.6,0-1.6,0l0-1.6V846h-17.9v20.4c0,0.5,0,1.6,0,1.6s-1.3,0-1.8,0h-10.6
		c-1,0-1.5,0-1.5,0V816.2z"/>
	<path d="M-977.9,846.7c0,1.8,0.2,3.3,0.7,4.5c0.5,1.2,1.1,2.2,1.9,3s1.7,1.4,2.8,1.7c1.1,0.4,2.2,0.5,3.3,0.5
		c1.2,0,2.3-0.2,3.4-0.6c1.1-0.4,2-1,2.8-1.9c0.8-0.8,1.4-1.9,1.9-3.1s0.7-2.6,0.7-4.2v-30.6c0-0.4,0.1-0.8,0.4-1.1
		c0.3-0.3,0.7-0.5,1.2-0.5h10.5c0.6,0,1,0.2,1.3,0.5c0.3,0.3,0.5,0.7,0.5,1.1v30.3c0,4.2-0.6,7.7-1.9,10.6c-1.2,2.9-2.9,5.2-5,6.9
		s-4.5,3-7.3,3.7c-2.7,0.8-5.6,1.1-8.7,1.1s-5.9-0.4-8.7-1.2c-2.8-0.8-5.2-2.1-7.3-3.8c-2.1-1.8-3.8-4.1-5-6.9
		c-1.2-2.8-1.9-6.3-1.9-10.5v-30.3c0-0.4,0.1-0.8,0.4-1.1c0.3-0.3,0.6-0.5,1-0.5h10.8c0.4,0,0.7,0.2,1.1,0.5
		c0.4,0.3,0.6,0.7,0.6,1.1V846.7z"/>
	<path d="M-941.2,816.2c0-0.5,0.1-0.9,0.4-1.2c0.3-0.3,0.7-0.5,1.2-0.5h23.3c2.5,0,4.8,0.5,6.9,1.4c2.2,0.9,4,2.2,5.7,3.8
		c1.6,1.6,2.9,3.4,3.8,5.6c0.9,2.1,1.4,4.4,1.4,6.8c0,1.6-0.2,3.2-0.7,4.7c-0.4,1.5-1.1,2.9-1.9,4.1c-0.8,1.3-1.7,2.4-2.8,3.5
		c-1.1,1-2.3,1.9-3.6,2.7l9.3,17.4c0.2,0.3,0.4,0.7,0.6,1.2c0.3,0.5,1.5,2.4,1.5,2.4s-2.1,0-2.5,0h-12.3c-0.4,0-1,0-1,0l-0.7-1.3
		l-8.7-16.5h-5.8v17.8c0,0-0.6,0-1.7,0h-10.7c-0.5,0-1.6,0-1.6,0s0-1,0-1.6V816.2z M-913,832.2c0-0.7-0.1-1.4-0.4-2.2
		c-0.3-0.7-0.6-1.4-1.1-2c-0.5-0.6-1.1-1.1-1.7-1.5c-0.7-0.4-1.4-0.7-2.2-0.8c-0.7,0-1.3-0.1-1.9-0.1c-0.6,0-1.2-0.1-1.9-0.1h-5
		v13.2h6.6c0.4,0,0.8,0,1.2,0c0.3,0,0.7-0.1,1.1-0.1c0.8-0.1,1.6-0.3,2.3-0.7s1.2-0.9,1.7-1.5c0.5-0.6,0.8-1.2,1-2
		C-913.1,833.8-913,833-913,832.2z"/>
	<path d="M-889.2,850.8c0.4,0.3,0.9,0.8,1.6,1.3c0.6,0.6,1.4,1.1,2.2,1.7c1.2,0.8,2.4,1.5,3.6,1.9c1.2,0.5,2.5,0.7,3.8,0.7
		c1.2,0,2.2-0.1,3.1-0.4c0.8-0.3,1.5-0.6,2-1.1s0.8-1,1-1.6c0.2-0.6,0.3-1.2,0.3-1.9c0-0.7-0.3-1.4-0.8-2c-0.6-0.6-1.3-1.1-2.1-1.6
		c-0.8-0.5-1.7-0.8-2.6-1.2c-0.9-0.3-1.7-0.6-2.3-0.8c-2.9-1-5.4-2.1-7.6-3.3c-2.2-1.2-4-2.5-5.4-3.9c-1.4-1.4-2.5-3-3.2-4.7
		c-0.7-1.7-1.1-3.6-1.1-5.7c0-2.2,0.5-4.3,1.3-6.1c0.9-1.8,2.2-3.4,3.9-4.7c1.7-1.3,3.7-2.3,6-3c2.4-0.7,5-1.1,7.9-1.1
		c2.2,0,4.3,0.2,6.3,0.7c2,0.5,4,1.3,5.9,2.4c0.8,0.5,1.6,1,2.3,1.5c0.7,0.5,1.4,1,1.9,1.5c0.6,0.5,1,0.9,1.3,1.4
		c0.3,0.4,0.5,0.8,0.5,1.1c0,0.3-0.1,0.6-0.2,0.9c-0.2,0.3-0.4,0.6-0.7,0.9l-5.5,5.9c-0.4,0.4-0.8,0.6-1.2,0.6
		c-0.3,0-0.6-0.1-0.9-0.3c-0.3-0.2-0.6-0.4-0.9-0.7l-0.3-0.3c-0.5-0.4-1-0.8-1.6-1.3s-1.2-0.8-1.9-1.2c-0.7-0.3-1.4-0.6-2.1-0.9
		c-0.7-0.2-1.5-0.3-2.3-0.3c-0.8,0-1.5,0.1-2.2,0.2c-0.7,0.1-1.3,0.3-1.8,0.6c-0.5,0.3-0.9,0.7-1.3,1.1c-0.3,0.5-0.5,1-0.5,1.7
		c0,0.7,0.2,1.3,0.5,1.7c0.3,0.5,0.8,0.9,1.5,1.4s1.5,0.8,2.5,1.2c1,0.4,2.2,0.8,3.5,1.2c2.5,0.8,4.9,1.7,7,2.6c2.1,0.9,4,2,5.6,3.3
		c1.6,1.3,2.8,2.8,3.7,4.5s1.3,3.9,1.3,6.4c0,2.6-0.5,5-1.6,7.2c-1.1,2.1-2.6,4-4.4,5.5c-1.9,1.5-4.1,2.7-6.6,3.5s-5.3,1.2-8.2,1.2
		c-2.8,0-5.5-0.5-8.1-1.5c-2.7-1-5.1-2.3-7.5-4c-1-0.7-1.8-1.4-2.4-2.1c-0.7-0.7-1.2-1.2-1.6-1.6l-0.1-0.1c0,0,0-0.1-0.1-0.1
		c0,0,0,0-0.1-0.1c0,0,0-0.1-0.1-0.1c0,0,0,0-0.1-0.1c-0.6-0.6-0.8-1.1-0.8-1.4c0-0.4,0.3-0.9,0.8-1.4l6.2-5.9
		c0.5-0.4,0.9-0.5,1.2-0.5c0.2,0,0.4,0.1,0.7,0.2C-889.9,850.3-889.6,850.5-889.2,850.8z"/>
	<path d="M-807.8,841.4c0,2.5-0.3,5-1,7.3c-0.6,2.3-1.6,4.4-2.8,6.4s-2.6,3.8-4.3,5.4c-1.7,1.6-3.5,3-5.5,4.1c-2,1.1-4.2,2-6.6,2.6
		c-2.4,0.6-4.8,0.9-7.3,0.9h-17.7c-0.4,0-1.7,0-1.7,0s0-0.9,0-1.5v-50.3c0-0.5,0.1-0.9,0.4-1.2c0.3-0.3,0.7-0.5,1.2-0.5h17.7
		c2.5,0,5,0.3,7.3,0.9c2.3,0.6,4.5,1.5,6.6,2.7c2,1.2,3.9,2.5,5.6,4.1s3.1,3.4,4.3,5.4c1.2,2,2.1,4.1,2.8,6.4
		C-808.2,836.4-807.8,838.9-807.8,841.4z M-840.8,827.5v27.7h3c0.6,0,1.1,0,1.6-0.1c0.5,0,1.1-0.1,1.6-0.1c1.8-0.1,3.5-0.6,5-1.3
		c1.6-0.7,2.9-1.7,4.1-2.9s2.1-2.6,2.7-4.2c0.7-1.6,1-3.4,1-5.3c0-2-0.4-3.9-1.1-5.6s-1.8-3.2-3.1-4.4c-1.3-1.2-2.8-2.2-4.6-2.9
		s-3.6-1-5.6-1H-840.8z"/>
	<path d="M-792.9,816c0-0.1,0.1-0.3,0.2-0.5c0.1-0.2,0.3-0.3,0.5-0.5c0.2-0.1,0.4-0.3,0.6-0.3c0.2-0.1,0.4-0.1,0.6-0.1h9.2
		c0.4,0,0.8,0.1,1,0.4c0.3,0.3,0.5,0.5,0.6,0.7l0.9,2.1l18.9,48.7c0.2,0.5,0.7,1.6,0.7,1.6s-1.5,0-2.1,0H-772c-0.6,0-1.4,0-1.4,0
		s-0.4-0.9-0.6-1.3c-0.5-1.2-0.9-2.4-1.4-3.7c-0.5-1.2-0.9-2.4-1.4-3.7h-19.1c-0.5,1.2-0.9,2.4-1.4,3.7c-0.5,1.2-1.8,5-1.8,5
		s-0.5,0-1.4,0h-10.6c-0.5,0-1.9,0-1.9,0s0.4-1,0.6-1.4L-792.9,816z M-786.3,831.4c-0.5,1.2-0.9,2.5-1.4,4c-0.5,1.4-0.9,2.8-1.4,4.3
		c-0.5,1.4-0.9,2.9-1.4,4.3c-0.5,1.4-0.9,2.7-1.4,3.9h11.1L-786.3,831.4z"/>
	<path d="M-747.9,834.3l8.7-18.6c0.1-0.3,0.3-0.5,0.4-0.6c0.1-0.1,0.2-0.2,0.3-0.3c0.1-0.1,0.2-0.1,0.3-0.1c0.1,0,0.2,0,0.4-0.1
		h13.9c0.2,0,0.3,0.1,0.4,0.2c0.1,0.1,0.2,0.2,0.2,0.4c0,0.3-0.2,0.6-0.5,0.9l-17.1,30.2v21.8c0,0-0.6,0-1.7,0h-10.8
		c-0.5,0-1.5,0-1.5,0l0-1.7v-20.2l-17-30.1c-0.3-0.3-0.5-0.6-0.5-0.9c0-0.1,0-0.3,0.1-0.4c0.1-0.1,0.2-0.2,0.4-0.2h13.9
		c0.2,0,0.3,0.1,0.4,0.1c0.1,0,0.2,0,0.3,0.1c0.1,0.1,0.2,0.2,0.3,0.3c0.1,0.1,0.2,0.3,0.4,0.6L-747.9,834.3z"/>
</g>
<g>
	<path d="M-917.4,705.2v19.5h-7.4C-924.8,724.6-927.8,713.2-917.4,705.2z"/>
	<path d="M-906.9,701.2v23.4h20.3c0,0,1.4-6.2-1.5-12.4C-890.7,706.7-896.9,701-906.9,701.2z"/>
	<path d="M-887.3,727.3c0,0-3.8,13.5-19.6,13v-13H-887.3z"/>
	<path d="M-917.4,727.3v9.2c0,0-4.7-3.3-6.7-9.2H-917.4z"/>
</g>
<g>
	<polygon points="-938.9,741.8 -948.7,731 -934.4,733.8 -930.3,741.4 	"/>
	<polygon points="-874.1,741.8 -864.3,731 -878.6,733.8 -882.7,741.4 	"/>
	<polygon points="-940.4,731.4 -943.3,726.1 -937.8,728.6 -936.8,732.1 	"/>
	<polygon points="-945,741.7 -950,738.2 -943.9,738 -941.6,740.7 	"/>
	<polygon points="-869,737.9 -862.8,738.1 -867.9,741.6 -871.3,740.6 	"/>
	<polygon points="-875.4,728.7 -869.8,726.1 -872.8,731.5 -876.3,732.1 	"/>
</g>
<g>
	<g>
		<g>
			<polygon points="-916.5,743.2 -1135,743.2 -1143.5,748.3 -916.5,748.3 			"/>
		</g>
		<path d="M-881.8,720.4c0,0.1,0,0.1,0,0.2c0,10-5.9,18.5-14.5,22.4v2.7c2-0.2,4-0.3,6-0.4c8-5.3,13.4-14.3,13.4-24.7
			c0-1.9-0.2-3.7-0.5-5.5L-881.8,720.4z"/>
		<path d="M-930.9,720.4c0,0.1,0,0.1,0,0.2c0,10,5.9,18.5,14.5,22.4v2.7c-2-0.2-4-0.3-6-0.4c-8-5.3-13.4-14.3-13.4-24.7
			c0-1.9,0.2-3.7,0.5-5.5L-930.9,720.4z"/>
	</g>
	<polygon points="-896.3,743.2 -677.7,743.2 -669.3,748.3 -896.3,748.3 	"/>
</g>
<g>
	<g>
		<polygon points="-923.7,882.2 -929.7,883.6 -925.7,879 -922.1,879 		"/>
		<polygon points="-927.9,880.9 -931.1,880.9 -928.5,879 -926.7,879.5 		"/>
	</g>
	<g>
		<polygon points="-884.1,882.2 -878.1,883.6 -882.1,879 -885.7,879 		"/>
		<polygon points="-879.8,881 -876.7,880.9 -879.2,879.1 -881,879.6 		"/>
	</g>
</g>
<path d="M-890.5,873.7c0,0-1-0.6-3.5-0.6c-2.4,0-22.3,0-22.3,0l-1.8,4.2h4.2l-3.8,8.9h-4.2l-1.8,4.2h16.8l1.8-4.2h-4.2l0.8-1.9h9.7
	c0,0,2.6,0,4.1-0.5c1.5-0.6,2.1-1.1,2.1-1.1s1.2-0.7,2.3-2.9c1.1-2.2,1.2-3.2,1.2-3.2S-888.7,874.6-890.5,873.7 M-897.7,879.1
	c-0.7,0.8-1.9,0.9-1.9,0.9h-7l1.2-2.7c0,0,6,0,7.2,0c1.2,0,1.1,0.7,1.1,0.7S-897.1,878.2-897.7,879.1"/>
<g>
	<polyline points="-921.9,878 -1064.4,878 -1072.7,873 -919.7,873 -921,876 	"/>
	<polygon points="-884.2,873 -884.9,875.1 -885.8,878 -748.4,878 -740,873 	"/>
</g>
<g>
	<g>
		<g>
			<polygon points="713.5,128.8 652.7,47.5 581.4,47.5 510,47.5 449.2,128.8 41,128.8 41,330.1 160,330.1 189.2,381.2 189.2,527.9 
				490.4,527.9 517.2,527.8 583.1,527.8 647.9,527.8 672.3,527.9 973.5,527.9 973.5,381.2 1002.8,330.1 1121.7,330.1 1121.7,294.4 
				1121.7,128.8 			"/>
			<path d="M520.8,519.9h123.4l24.5,0.1h296.8V379.1l32.6-56.9h115.6V136.7H709.5l-60.8-81.4H514l-60.8,81.4H48.9v185.4h115.6
				l32.6,56.9V520H494L520.8,519.9z M651.4,535.7H513.7l-26.9,0.1H181.3V383.3L155.3,338H33.1V120.9h412.1L506,39.6h150.6l60.8,81.4
				h412.1V338h-122.3l-25.9,45.3v152.5H675.9L651.4,535.7z"/>
		</g>
		<g>
			<polygon points="713.7,128.2 652.8,46.7 581.4,46.7 509.9,46.7 449,128.2 40.3,128.2 40.3,329.7 159.5,329.7 188.7,380.8 
				188.7,527.7 490.3,527.7 517.2,527.6 583.1,527.6 647.9,527.6 672.4,527.7 974,527.7 974,380.8 1003.3,329.7 1122.4,329.7 
				1122.4,293.9 1122.4,128.2 			"/>
			<path d="M520.8,519.7h123.6l24.5,0.1H966v-141l32.6-57h115.8V136.1H709.7l-60.9-81.5H513.9L453,136.1H48.3v185.7h115.8l32.6,57
				v141h297.2L520.8,519.7z M651.5,535.5h-138l-26.9,0.1H180.8V382.9l-26-45.4H32.4V120.3H445l60.9-81.5h150.8l60.9,81.5h412.6
				v217.3h-122.4l-26,45.4v152.6H676L651.5,535.5z"/>
		</g>
		<g>
			<polygon points="713.8,127.5 652.9,45.9 581.4,45.9 509.8,45.9 448.9,127.5 39.7,127.5 39.7,329.2 159,329.2 188.3,380.5 
				188.3,527.4 490.2,527.4 517.1,527.3 583.1,527.3 648,527.3 672.5,527.4 974.4,527.4 974.4,380.5 1003.7,329.2 1123,329.2 
				1123,293.5 1123,127.5 			"/>
			<path d="M520.7,519.4h123.7l24.5,0h297.5V378.4l32.7-57.1h115.9V135.4H709.8l-61-81.6h-135l-61,81.6H47.7v185.9h115.9l32.7,57.1
				v141.1h297.5L520.7,519.4z M651.6,535.3H513.5l-26.9,0H180.3V382.6l-26-45.4H31.8V119.6h413.1l61-81.6h151l61,81.6h413.1v217.6
				h-122.6l-26,45.4v152.7H676.1L651.6,535.3z"/>
		</g>
		<g>
			<polygon points="714,126.8 652.9,45.2 581.4,45.2 509.8,45.2 448.7,126.8 39.1,126.8 39.1,328.8 158.5,328.8 187.8,380.1 
				187.8,527.1 490.1,527.1 517,527.1 583.1,527.1 648.1,527.1 672.7,527.1 974.9,527.1 974.9,380.1 1004.2,328.8 1123.6,328.8 
				1123.6,293 1123.6,126.8 			"/>
			<path d="M520.6,519.2h123.9l24.6,0h297.9V378l32.7-57.1h116.1V134.8H710l-61-81.7H513.8l-61,81.7H47v186.1h116.1l32.7,57.1v141.2
				h297.9L520.6,519.2z M651.7,535H513.4l-27,0H179.9V382.2l-26-45.5H31.1V118.9h413.6l61-81.7h151.2l61,81.7h413.6v217.8h-122.7
				l-26,45.5v152.8H676.3L651.7,535z"/>
		</g>
		<g>
			<polygon points="714.1,126.2 653,44.4 581.4,44.4 509.7,44.4 448.6,126.2 38.4,126.2 38.4,328.4 158,328.4 187.4,379.7 
				187.4,526.9 489.9,526.9 516.9,526.9 583.1,526.9 648.2,526.9 672.8,526.9 975.4,526.9 975.4,379.7 1004.7,328.4 1124.3,328.4 
				1124.3,292.5 1124.3,126.2 			"/>
			<path d="M520.5,518.9h124l24.6,0h298.2V377.6l32.7-57.2h116.2V134.1H710.1L649,52.3H513.7l-61.1,81.8H46.4v186.3h116.2l32.7,57.2
				v141.3h298.2L520.5,518.9z M651.8,534.8H513.3l-27,0H179.4v-153l-26.1-45.5H30.5V118.2h414.1l61.1-81.8H657l61.1,81.8h414.1
				v218.1h-122.9l-26.1,45.5v153H676.4L651.8,534.8z"/>
		</g>
		<g>
			<polygon points="714.3,125.5 653.1,43.6 581.4,43.6 509.6,43.6 448.4,125.5 37.8,125.5 37.8,327.9 157.5,327.9 186.9,379.4 
				186.9,526.6 489.8,526.6 516.9,526.6 583.1,526.6 648.2,526.6 672.9,526.6 975.8,526.6 975.8,379.4 1005.2,327.9 1124.9,327.9 
				1124.9,292.1 1124.9,125.5 			"/>
			<path d="M520.5,518.7h124.2l24.6-0.1h298.6V377.2l32.8-57.3h116.3V133.4H710.3l-61.2-81.9H513.6l-61.2,81.9H45.8V320h116.3
				l32.8,57.3v141.4h298.6L520.5,518.7z M651.9,534.6H513.2l-27-0.1H178.9V381.5l-26.1-45.6h-123V117.5h414.6l61.2-81.9h151.5
				l61.2,81.9h414.6v218.3h-123l-26.1,45.6v153.1H676.5L651.9,534.6z"/>
		</g>
		<g>
			<polygon points="714.5,124.8 653.2,42.9 581.4,42.9 509.5,42.9 448.2,124.8 37.2,124.8 37.2,327.5 157,327.5 186.4,379 
				186.4,526.3 489.7,526.3 516.8,526.4 583.1,526.4 648.3,526.4 673,526.3 976.3,526.3 976.3,379 1005.7,327.5 1125.6,327.5 
				1125.6,291.6 1125.6,124.8 			"/>
			<path d="M520.4,518.5h124.3l24.7-0.1h298.9V376.9l32.8-57.3h116.5V132.8H710.5l-61.3-82H513.5l-61.3,82H45.1v186.8h116.5
				l32.8,57.3v141.5h298.9L520.4,518.5z M651.9,534.4H513.2l-27.1-0.1H178.4V381.1l-26.1-45.6H29.2V116.9h415.1l61.3-82h151.7
				l61.3,82h415.1v218.6h-123.2l-26.1,45.6v153.2H676.6L651.9,534.4z"/>
		</g>
		<g>
			<polygon points="714.6,124.1 653.3,42.1 581.4,42.1 509.4,42.1 448.1,124.1 36.5,124.1 36.5,327.1 156.5,327.1 186,378.6 
				186,526.1 489.6,526.1 516.7,526.2 583.1,526.2 648.4,526.2 673.1,526.1 976.7,526.1 976.7,378.6 1006.2,327.1 1126.2,327.1 
				1126.2,291.1 1126.2,124.1 			"/>
			<path d="M520.3,518.2h124.5l24.7-0.1h299.3V376.5l32.8-57.4h116.6v-187H710.6l-61.3-82.1H513.4l-61.3,82.1H44.5v187h116.6
				l32.9,57.4v141.6h299.3L520.3,518.2z M652,534.1H513.1L486,534H178V380.7L151.8,335H28.5V116.2h415.6l61.3-82.1h151.9l61.3,82.1
				h415.6V335h-123.3l-26.1,45.7V534h-308L652,534.1z"/>
		</g>
		<g>
			<polygon points="714.8,123.5 653.4,41.3 581.4,41.3 509.3,41.3 447.9,123.5 35.9,123.5 35.9,326.6 156,326.6 185.5,378.2 
				185.5,525.8 489.5,525.8 516.6,525.9 583.1,525.9 648.5,525.9 673.2,525.8 977.2,525.8 977.2,378.2 1006.7,326.6 1126.8,326.6 
				1126.8,290.6 1126.8,123.5 			"/>
			<path d="M520.2,518h124.6l24.7-0.2h299.6V376.1l32.9-57.5h116.7V131.5H710.8l-61.4-82.1h-136L452,131.5H43.9v187.2h116.7
				l32.9,57.5v141.7h299.6L520.2,518z M652.1,533.9H513l-27.1-0.2H177.5V380.4l-26.2-45.8H27.9V115.5h416l61.4-82.1h152.1l61.4,82.1
				h416v219.1h-123.4l-26.2,45.8v153.4H676.8L652.1,533.9z"/>
		</g>
		<g>
			<polygon points="714.9,122.8 653.5,40.6 581.4,40.6 509.3,40.6 447.8,122.8 35.2,122.8 35.2,326.2 155.5,326.2 185,377.9 
				185,525.5 489.4,525.5 516.5,525.7 583.1,525.7 648.6,525.7 673.3,525.5 977.7,525.5 977.7,377.9 1007.2,326.2 1127.5,326.2 
				1127.5,290.2 1127.5,122.8 			"/>
			<path d="M520.2,517.7h124.8l24.7-0.2h300V375.8l32.9-57.5h116.9V130.8H710.9l-61.5-82.2H513.3l-61.5,82.2H43.2v187.4h116.9
				l32.9,57.5v141.8h300L520.2,517.7z M652.2,533.7H512.9l-27.1-0.2H177V380l-26.2-45.8H27.2V114.8h416.5l61.5-82.2h152.2l61.5,82.2
				h416.5v219.4h-123.6L985.7,380v153.5H676.9L652.2,533.7z"/>
		</g>
		<g>
			<polygon points="715.1,122.1 653.5,39.8 581.4,39.8 509.2,39.8 447.6,122.1 34.6,122.1 34.6,325.8 155,325.8 184.6,377.5 
				184.6,525.3 489.3,525.3 516.5,525.5 583.1,525.5 648.6,525.5 673.4,525.3 978.1,525.3 978.1,377.5 1007.7,325.8 1128.1,325.8 
				1128.1,289.7 1128.1,122.1 			"/>
			<path d="M520.1,517.5H645l24.8-0.2h300.3V375.4l33-57.6h117V130.1h-409l-61.5-82.3H513.2l-61.5,82.3h-409v187.6h117l33,57.6
				v141.9h300.3L520.1,517.5z M652.3,533.5H512.8l-27.2-0.2H176.6V379.6l-26.2-45.9H26.6V114.1h417l61.5-82.3h152.4l61.5,82.3h417
				v219.6h-123.7l-26.2,45.9v153.6H677L652.3,533.5z"/>
		</g>
		<g>
			<polygon points="715.2,121.5 653.6,39 581.4,39 509.1,39 447.5,121.5 34,121.5 34,325.3 154.5,325.3 184.1,377.1 184.1,525 
				489.2,525 516.4,525.3 583.1,525.3 648.7,525.3 673.5,525 978.6,525 978.6,377.1 1008.2,325.3 1128.7,325.3 1128.7,289.2 
				1128.7,121.5 			"/>
			<path d="M520,517.2h125l24.8-0.3h300.7V375l33-57.7h117.2V129.5H711.2L649.6,47H513.1l-61.6,82.4H42v187.9h117.1l33,57.7v142
				h300.7L520,517.2z M652.3,533.3H512.8l-27.2-0.3H176.1V379.2l-26.3-45.9H25.9V113.5h417.5L505.1,31h152.6l61.6,82.4h417.5v219.9
				h-123.9l-26.3,45.9V533H677.1L652.3,533.3z"/>
		</g>
		<g>
			<polygon points="715.4,120.8 653.7,38.3 581.4,38.3 509,38.3 447.3,120.8 33.3,120.8 33.3,324.9 154,324.9 183.6,376.8 
				183.6,524.7 489.1,524.7 516.3,525 583.1,525 648.8,525 673.6,524.7 979.1,524.7 979.1,376.8 1008.7,324.9 1129.4,324.9 
				1129.4,288.7 1129.4,120.8 			"/>
			<path d="M520,517h125.2l24.8-0.3h301V374.6l33-57.7h117.3V128.8h-410l-61.7-82.5H513l-61.7,82.5h-410v188.1h117.3l33,57.7v142.1
				h301L520,517z M652.4,533H512.7l-27.2-0.3H175.6V378.9l-26.3-46h-124V112.8h418L505,30.2h152.8l61.7,82.5h418v220.1h-124
				l-26.3,46v153.9H677.3L652.4,533z"/>
		</g>
		<g>
			<polygon points="715.6,120.1 653.8,37.5 581.4,37.5 508.9,37.5 447.2,120.1 32.7,120.1 32.7,324.5 153.5,324.5 183.2,376.4 
				183.2,524.5 489,524.5 516.2,524.8 583.1,524.8 648.9,524.8 673.7,524.5 979.5,524.5 979.5,376.4 1009.2,324.5 1130,324.5 
				1130,288.3 1130,120.1 			"/>
			<path d="M519.9,516.8h125.3l24.9-0.3h301.4V374.3l33.1-57.8H1122V128.1H711.5l-61.8-82.6H513l-61.8,82.6H40.7v188.3h117.4
				l33.1,57.8v142.2h301.4L519.9,516.8z M652.5,532.8H512.6l-27.3-0.3H175.1v-154l-26.3-46H24.6V112.1h418.5l61.8-82.6h153
				l61.8,82.6h418.5v220.4h-124.2l-26.3,46v154H677.4L652.5,532.8z"/>
		</g>
		<g>
			<polygon points="715.7,119.5 653.9,36.7 581.4,36.7 508.8,36.7 447,119.5 32,119.5 32,324 153,324 182.7,376 182.7,524.2 
				488.9,524.2 516.2,524.6 583.1,524.6 648.9,524.6 673.8,524.2 980,524.2 980,376 1009.7,324 1130.7,324 1130.7,287.8 
				1130.7,119.5 			"/>
			<path d="M519.8,516.5h125.5l24.9-0.4h301.7V373.9L1005,316h117.6V127.5H711.7l-61.8-82.7h-137L451,127.5H40.1V316h117.6
				l33.1,57.9v142.3h301.7L519.8,516.5z M652.6,532.6H512.5l-27.3-0.4H174.7V378.1l-26.4-46.1H24V111.4h419l61.8-82.7h153.1
				l61.8,82.7h419v220.6h-124.3L988,378.1v154.1H677.5L652.6,532.6z"/>
		</g>
		<g>
			<polygon points="715.9,118.8 654,36 581.4,36 508.7,36 446.8,118.8 31.4,118.8 31.4,323.6 152.5,323.6 182.3,375.6 182.3,523.9 
				488.8,523.9 516.1,524.3 583.1,524.3 649,524.3 673.9,523.9 980.4,523.9 980.4,375.6 1010.2,323.6 1131.3,323.6 1131.3,287.3 
				1131.3,118.8 			"/>
			<path d="M519.7,516.3h125.6l24.9-0.4h302.1V373.5l33.2-57.9h117.7V126.8H711.8L649.9,44H512.8l-61.9,82.8H39.5v188.7h117.7
				l33.2,57.9v142.4h302.1L519.7,516.3z M652.7,532.4H512.4l-27.3-0.4H174.2V377.8l-26.4-46.1H23.3V110.7h419.5l61.9-82.8H658
				l61.9,82.8h419.5v220.9h-124.5l-26.4,46.1V532H677.6L652.7,532.4z"/>
		</g>
		<g>
			<polygon points="716,118.1 654,35.2 581.4,35.2 508.7,35.2 446.7,118.1 30.8,118.1 30.8,323.2 152,323.2 181.8,375.3 
				181.8,523.7 488.7,523.7 516,524.1 583.1,524.1 649.1,524.1 674.1,523.7 980.9,523.7 980.9,375.3 1010.7,323.2 1131.9,323.2 
				1131.9,286.8 1131.9,118.1 			"/>
			<path d="M519.7,516h125.8l25-0.4h302.4V373.1l33.2-58h117.8v-189H712l-62-82.9H512.7l-62,82.9H38.8v189h117.8l33.2,58v142.5
				h302.4L519.7,516z M652.8,532.2H512.4l-27.4-0.4H173.7V377.4l-26.4-46.2H22.7V110.1h419.9l62-82.9h153.5l62,82.9H1140v221.2
				h-124.6L989,377.4v154.3H677.7L652.8,532.2z"/>
		</g>
		<g>
			<polygon points="716.2,117.4 654.1,34.4 581.4,34.4 508.6,34.4 446.5,117.4 30.1,117.4 30.1,322.7 151.5,322.7 181.3,374.9 
				181.3,523.4 488.5,523.4 515.9,523.9 583.1,523.9 649.2,523.9 674.2,523.4 981.4,523.4 981.4,374.9 1011.2,322.7 1132.6,322.7 
				1132.6,286.4 1132.6,117.4 			"/>
			<path d="M519.6,515.8h125.9l25-0.5h302.8V372.8l33.2-58.1h118V125.5H712.1l-62.1-83H512.6l-62.1,83H38.2v189.2h118l33.2,58.1
				v142.6h302.8L519.6,515.8z M652.8,531.9H512.3l-27.4-0.5H173.2V377l-26.5-46.2H22V109.4h420.4l62.1-83h153.7l62.1,83h420.4v221.4
				h-124.8L989.5,377v154.4H677.8L652.8,531.9z"/>
		</g>
		<g>
			<polygon points="716.3,116.8 654.2,33.7 581.4,33.7 508.5,33.7 446.4,116.8 29.5,116.8 29.5,322.3 151,322.3 180.9,374.5 
				180.9,523.1 488.4,523.1 515.9,523.6 583.1,523.6 649.2,523.6 674.3,523.1 981.8,523.1 981.8,374.5 1011.7,322.3 1133.2,322.3 
				1133.2,285.9 1133.2,116.8 			"/>
			<path d="M519.5,515.6h126.1l25-0.5h303.1V372.4l33.3-58.1h118.1V124.8H712.3l-62.1-83.1H512.6l-62.1,83.1H37.6v189.4h118.1
				l33.3,58.1v142.7h303.1L519.5,515.6z M652.9,531.7H512.2l-27.4-0.5h-312V376.7l-26.5-46.3H21.4V108.7h420.9l62.1-83.1h153.8
				l62.1,83.1h420.9v221.7h-124.9l-26.5,46.3v154.5h-312L652.9,531.7z"/>
		</g>
		<g>
			<polygon points="716.5,116.1 654.3,32.9 581.4,32.9 508.4,32.9 446.2,116.1 28.8,116.1 28.8,321.9 150.5,321.9 180.4,374.2 
				180.4,522.9 488.3,522.9 515.8,523.4 583.1,523.4 649.3,523.4 674.4,522.9 982.3,522.9 982.3,374.2 1012.2,321.9 1133.9,321.9 
				1133.9,285.4 1133.9,116.1 			"/>
			<path d="M519.4,515.3h126.2l25-0.5h303.5V372l33.3-58.2h118.2V124.2H712.4L650.2,41H512.5l-62.2,83.2H37v189.6h118.2l33.3,58.2
				v142.8H492L519.4,515.3z M653,531.5H512.1l-27.4-0.5H172.3V376.3L145.8,330h-125V108h421.4l62.2-83.2h154l62.2,83.2H1142V330
				h-125l-26.5,46.3v154.7H678L653,531.5z"/>
		</g>
		<g>
			<polygon points="716.6,115.4 654.4,32.1 581.4,32.1 508.3,32.1 446.1,115.4 28.2,115.4 28.2,321.4 150,321.4 179.9,373.8 
				179.9,522.6 488.2,522.6 515.7,523.2 583.1,523.2 649.4,523.2 674.5,522.6 982.8,522.6 982.8,373.8 1012.7,321.4 1134.5,321.4 
				1134.5,284.9 1134.5,115.4 			"/>
			<path d="M519.4,515.1h126.4l25.1-0.6h303.8V371.6l33.4-58.3h118.4V123.5H712.6l-62.3-83.3H512.4l-62.3,83.3H36.3v189.8h118.4
				l33.4,58.3v142.9h303.8L519.4,515.1z M653.1,531.3H512l-27.5-0.6H171.8V375.9l-26.5-46.4H20.1V107.3H442L504.3,24h154.2
				l62.3,83.3h421.9v222.2h-125.2l-26.5,46.4v154.8H678.2L653.1,531.3z"/>
		</g>
		<g>
			<polygon points="716.8,114.8 654.5,31.4 581.4,31.4 508.2,31.4 445.9,114.8 27.6,114.8 27.6,321 149.5,321 179.5,373.4 
				179.5,522.3 488.1,522.3 515.6,522.9 583.1,522.9 649.5,522.9 674.6,522.3 983.2,522.3 983.2,373.4 1013.2,321 1135.1,321 
				1135.1,284.5 1135.1,114.8 			"/>
			<path d="M519.3,514.8h126.5l25.1-0.6h304.2v-143l33.4-58.3H1127v-190H712.7l-62.3-83.4H512.3L450,122.9H35.7v190h118.5l33.4,58.3
				v143h304.2L519.3,514.8z M653.2,531H511.9l-27.5-0.6H171.4V375.6l-26.6-46.4H19.4V106.7h422.4l62.3-83.4h154.4l62.3,83.4h422.4
				v222.4h-125.3l-26.6,46.4v154.9H678.3L653.2,531z"/>
		</g>
		<g>
			<polygon points="717,114.1 654.5,30.6 581.4,30.6 508.2,30.6 445.7,114.1 26.9,114.1 26.9,320.6 149,320.6 179,373 179,522.1 
				488,522.1 515.5,522.7 583.1,522.7 649.6,522.7 674.7,522.1 983.7,522.1 983.7,373 1013.7,320.6 1135.8,320.6 1135.8,284 
				1135.8,114.1 			"/>
			<path d="M519.2,514.6h126.7L671,514h304.5V370.9l33.4-58.4h118.7V122.2H712.9l-62.4-83.5H512.2l-62.4,83.5H35.1v190.3h118.7
				l33.4,58.4V514h304.5L519.2,514.6z M653.2,530.8H511.9l-27.5-0.6H170.9v-155l-26.6-46.5H18.8V106h422.9l62.4-83.5h154.6L721,106
				h422.9v222.7h-125.5l-26.6,46.5v155H678.4L653.2,530.8z"/>
		</g>
		<g>
			<polygon points="717.1,113.4 654.6,29.8 581.4,29.8 508.1,29.8 445.6,113.4 26.3,113.4 26.3,320.1 148.5,320.1 178.5,372.7 
				178.5,521.8 487.9,521.8 515.5,522.5 583.1,522.5 649.6,522.5 674.8,521.8 984.2,521.8 984.2,372.7 1014.2,320.1 1136.4,320.1 
				1136.4,283.5 1136.4,113.4 			"/>
			<path d="M519.2,514.4H646l25.2-0.7H976V370.5l33.5-58.5h118.8V121.5H713L650.5,38H512.2l-62.5,83.6H34.4V312h118.8l33.5,58.5
				v143.2h304.9L519.2,514.4z M653.3,530.6H511.8l-27.6-0.7H170.4V374.8l-26.6-46.6H18.1v-223h423.4L504,21.7h154.7l62.5,83.6h423.4
				v223h-125.6l-26.6,46.6v155.1H678.5L653.3,530.6z"/>
		</g>
		<g>
			<polygon points="717.3,112.8 654.7,29.1 581.4,29.1 508,29.1 445.4,112.8 25.7,112.8 25.7,319.7 148,319.7 178.1,372.3 
				178.1,521.5 487.8,521.5 515.4,522.2 583.1,522.2 649.7,522.2 674.9,521.5 984.6,521.5 984.6,372.3 1014.7,319.7 1137.1,319.7 
				1137.1,283 1137.1,112.8 			"/>
			<path d="M519.1,514.1H646l25.2-0.7h305.2V370.1l33.5-58.6h118.9V120.9H713.2l-62.6-83.7H512.1l-62.6,83.7H33.8v190.7h118.9
				l33.5,58.6v143.3h305.2L519.1,514.1z M653.4,530.4H511.7l-27.6-0.7H169.9V374.4l-26.7-46.6H17.5V104.6h423.8l62.6-83.7h154.9
				l62.6,83.7h423.8v223.2h-125.8l-26.7,46.6v155.2H678.6L653.4,530.4z"/>
		</g>
		<g>
			<polygon points="717.4,112.1 654.8,28.3 581.4,28.3 507.9,28.3 445.3,112.1 25,112.1 25,319.3 147.5,319.3 177.6,371.9 
				177.6,521.3 487.7,521.3 515.3,522 583.1,522 649.8,522 675,521.3 985.1,521.3 985.1,371.9 1015.2,319.3 1137.7,319.3 
				1137.7,282.6 1137.7,112.1 			"/>
			<path d="M519,513.9h127.1l25.2-0.7h305.6V369.8l33.5-58.6h119.1V120.2H713.3l-62.6-83.8H512l-62.6,83.8H33.2v190.9h119.1
				l33.5,58.6v143.4h305.6L519,513.9z M653.5,530.2H511.6l-27.6-0.7H169.5V374.1l-26.7-46.7H16.9V103.9h424.3l62.6-83.8h155.1
				l62.6,83.8h424.3v223.5h-125.9l-26.7,46.7v155.3H678.7L653.5,530.2z"/>
		</g>
		<g>
			<polygon points="717.6,111.4 654.9,27.5 581.4,27.5 507.8,27.5 445.1,111.4 24.4,111.4 24.4,318.9 147,318.9 177.2,371.6 
				177.2,521 487.6,521 515.2,521.8 583.1,521.8 649.9,521.8 675.1,521 985.5,521 985.5,371.6 1015.7,318.9 1138.3,318.9 
				1138.3,282.1 1138.3,111.4 			"/>
			<path d="M518.9,513.6h127.2l25.3-0.8h305.9V369.4l33.6-58.7h119.2V119.6H713.5l-62.7-83.9H511.9l-62.7,83.9H32.5v191.1h119.2
				l33.6,58.7v143.5h305.9L518.9,513.6z M653.6,529.9h-142l-27.7-0.8H169V373.7L142.3,327H16.2V103.3H441l62.7-83.9H659l62.7,83.9
				h424.8V327h-126.1l-26.7,46.7v155.4H678.8L653.6,529.9z"/>
		</g>
		<g>
			<polygon points="717.7,110.7 655,26.8 581.4,26.8 507.7,26.8 445,110.7 23.7,110.7 23.7,318.4 146.5,318.4 176.7,371.2 
				176.7,520.7 487.5,520.7 515.2,521.6 583.1,521.6 649.9,521.6 675.2,520.7 986,520.7 986,371.2 1016.2,318.4 1139,318.4 
				1139,281.6 1139,110.7 			"/>
			<path d="M518.9,513.4h127.4l25.3-0.8h306.3V369l33.6-58.8h119.3V118.9H713.6l-62.8-84h-139l-62.8,84H31.9v191.4h119.3l33.6,58.8
				v143.6h306.3L518.9,513.4z M653.6,529.7H511.5l-27.7-0.8H168.5V373.3l-26.8-46.8H15.6v-224h425.3l62.8-84h155.4l62.8,84h425.3
				v224H1021l-26.8,46.8v155.6H678.9L653.6,529.7z"/>
		</g>
		<g>
			<polygon points="717.9,110.1 655.1,26 581.4,26 507.7,26 444.8,110.1 23.1,110.1 23.1,318 146,318 176.2,370.8 176.2,520.5 
				487.4,520.5 515.1,521.3 583.1,521.3 650,521.3 675.3,520.5 986.5,520.5 986.5,370.8 1016.7,318 1139.6,318 1139.6,281.1 
				1139.6,110.1 			"/>
			<path d="M518.8,513.2h127.5l25.3-0.8h306.6V368.6l33.7-58.8h119.5V118.2H713.8l-62.8-84.1H511.8l-62.8,84.1H31.3v191.6h119.5
				l33.7,58.8v143.7h306.6L518.8,513.2z M653.7,529.5H511.4l-27.7-0.8H168V373l-26.8-46.8H14.9V101.9h425.8l62.8-84.1h155.6
				l62.8,84.1h425.8v224.2h-126.3L994.7,373v155.7H679L653.7,529.5z"/>
		</g>
		<g>
			<polygon points="718.1,109.4 655.1,25.2 581.4,25.2 507.6,25.2 444.7,109.4 22.5,109.4 22.5,317.6 145.5,317.6 175.8,370.4 
				175.8,520.2 487.3,520.2 515,521.1 583.1,521.1 650.1,521.1 675.5,520.2 986.9,520.2 986.9,370.4 1017.2,317.6 1140.2,317.6 
				1140.2,280.7 1140.2,109.4 			"/>
			<path d="M518.7,512.9h127.7l25.4-0.9h307V368.3l33.7-58.9H1132V117.6H713.9L651,33.4H511.7l-62.9,84.2H30.7v191.8h119.6
				l33.7,58.9V512h307L518.7,512.9z M653.8,529.3H511.3l-27.7-0.9h-316V372.6l-26.8-46.9H14.3V101.2h426.3l62.9-84.2h155.8
				l62.9,84.2h426.3v224.5H1022l-26.8,46.9v155.8h-316L653.8,529.3z"/>
		</g>
		<g>
			<polygon points="718.2,108.7 655.2,24.5 581.4,24.5 507.5,24.5 444.5,108.7 21.8,108.7 21.8,317.1 145,317.1 175.3,370.1 
				175.3,519.9 487.1,519.9 514.9,520.9 583.1,520.9 650.2,520.9 675.6,519.9 987.4,519.9 987.4,370.1 1017.7,317.1 1140.9,317.1 
				1140.9,280.2 1140.9,108.7 			"/>
			<path d="M518.6,512.7h127.8l25.4-0.9h307.3V367.9l33.7-59h119.7v-192H714.1l-63-84.3H511.6l-63,84.3H30v192h119.7l33.7,59v143.9
				h307.3L518.6,512.7z M653.9,529H511.2l-27.8-0.9H167.1V372.2l-26.9-46.9H13.6V100.5h426.8l63-84.3h156l63,84.3h426.8v224.8
				h-126.6l-26.9,46.9v155.9H679.3L653.9,529z"/>
		</g>
		<g>
			<polygon points="718.4,108.1 655.3,23.7 581.4,23.7 507.4,23.7 444.3,108.1 21.2,108.1 21.2,316.7 144.5,316.7 174.8,369.7 
				174.8,519.7 487,519.7 514.8,520.6 583.1,520.6 650.3,520.6 675.7,519.7 987.9,519.7 987.9,369.7 1018.2,316.7 1141.5,316.7 
				1141.5,279.7 1141.5,108.1 			"/>
			<path d="M518.6,512.4h128l25.4-1h307.7v-144l33.8-59h119.9V116.3H714.2l-63.1-84.4H511.5l-63.1,84.4H29.4v192.2h119.9l33.8,59
				v144h307.7L518.6,512.4z M654,528.8H511.1l-27.8-1H166.6v-156l-26.9-47H13v-225h427.3l63.1-84.4h156.2l63.1,84.4h427.3v225H1023
				l-26.9,47v156H679.4L654,528.8z"/>
		</g>
		<g>
			<polygon points="718.5,107.4 655.4,22.9 581.4,22.9 507.3,22.9 444.2,107.4 20.5,107.4 20.5,316.3 144,316.3 174.4,369.3 
				174.4,519.4 486.9,519.4 514.8,520.4 583.1,520.4 650.3,520.4 675.8,519.4 988.3,519.4 988.3,369.3 1018.7,316.3 1142.2,316.3 
				1142.2,279.2 1142.2,107.4 			"/>
			<path d="M518.5,512.2h128.1l25.4-1h308.1V367.1l33.8-59.1h120V115.6H714.4l-63.1-84.5H511.4l-63.1,84.5H28.8v192.5h120l33.8,59.1
				v144.1h308.1L518.5,512.2z M654.1,528.6H511l-27.8-1H166.1V371.5l-26.9-47H12.3V99.2h427.7l63.1-84.5h156.3l63.1,84.5h427.7
				v225.3h-126.9l-26.9,47v156.1H679.5L654.1,528.6z"/>
		</g>
		<g>
			<polygon points="718.7,106.7 655.5,22.2 581.4,22.2 507.2,22.2 444,106.7 19.9,106.7 19.9,315.8 143.5,315.8 173.9,368.9 
				173.9,519.1 486.8,519.1 514.7,520.2 583.1,520.2 650.4,520.2 675.9,519.1 988.8,519.1 988.8,368.9 1019.2,315.8 1142.8,315.8 
				1142.8,278.8 1142.8,106.7 			"/>
			<path d="M518.4,512h128.3l25.5-1h308.4V366.8l33.9-59.2h120.2V114.9h-420l-63.2-84.6h-140l-63.2,84.6h-420v192.7h120.2l33.9,59.2
				v144.2h308.4L518.4,512z M654.1,528.4H511l-27.9-1H165.7V371.1L138.7,324H11.7V98.5h428.2L503.1,14h156.5l63.2,84.6H1151V324
				H1024L997,371.1v156.2H679.6L654.1,528.4z"/>
		</g>
		<g>
			<polygon points="718.8,106.1 655.6,21.4 581.4,21.4 507.1,21.4 443.9,106.1 19.3,106.1 19.3,315.4 143,315.4 173.4,368.6 
				173.4,518.9 486.7,518.9 514.6,519.9 583.1,519.9 650.5,519.9 676,518.9 989.3,518.9 989.3,368.6 1019.7,315.4 1143.4,315.4 
				1143.4,278.3 1143.4,106.1 			"/>
			<path d="M518.3,511.7h128.4l25.5-1.1H981V366.4l33.9-59.2h120.3V114.3H714.7l-63.3-84.6H511.3L448,114.3H27.5v192.9h120.3
				l33.9,59.2v144.3h308.8L518.3,511.7z M654.2,528.2H510.9l-27.9-1.1H165.2V370.8l-27-47.1H11V97.8h428.7L503,13.2h156.7L723,97.8
				h428.7v225.8h-127.2l-27,47.1v156.3H679.7L654.2,528.2z"/>
		</g>
		<g>
			<polygon points="719,105.4 655.6,20.6 581.4,20.6 507.1,20.6 443.7,105.4 18.6,105.4 18.6,315 142.5,315 173,368.2 173,518.6 
				486.6,518.6 514.5,519.7 583.1,519.7 650.6,519.7 676.1,518.6 989.7,518.6 989.7,368.2 1020.2,315 1144.1,315 1144.1,277.8 
				1144.1,105.4 			"/>
			<path d="M518.3,511.5h128.6l25.5-1.1h309.1V366l33.9-59.3h120.4V113.6h-421l-63.3-84.7H511.2l-63.3,84.7h-421v193.1h120.4
				l33.9,59.3v144.4h309.1L518.3,511.5z M654.3,527.9H510.8l-27.9-1.1H164.7V370.4l-27-47.2H10.4v-226h429.2l63.3-84.7h156.9
				l63.3,84.7h429.2v226H1025l-27,47.2v156.5H679.8L654.3,527.9z"/>
		</g>
		<g>
			<polygon points="719.1,104.7 655.7,19.9 581.4,19.9 507,19.9 443.6,104.7 18,104.7 18,314.5 142,314.5 172.5,367.8 172.5,518.3 
				486.5,518.3 514.5,519.5 583.1,519.5 650.6,519.5 676.2,518.3 990.2,518.3 990.2,367.8 1020.7,314.5 1144.7,314.5 1144.7,277.3 
				1144.7,104.7 			"/>
			<path d="M518.2,511.2h128.7l25.6-1.1h309.5V365.6l34-59.4h120.6V113H715l-63.4-84.8H511.1L447.7,113H26.3v193.3h120.6l34,59.4
				v144.5h309.5L518.2,511.2z M654.4,527.7H510.7l-28-1.1H164.3V370l-27-47.3H9.7V96.5h429.7l63.4-84.8h157l63.4,84.8H1153v226.3
				h-127.5l-27,47.3v156.6H679.9L654.4,527.7z"/>
		</g>
		<g>
			<polygon points="719.3,104 655.8,19.1 581.4,19.1 506.9,19.1 443.4,104 17.3,104 17.3,314.1 141.5,314.1 172.1,367.5 
				172.1,518.1 486.4,518.1 514.4,519.2 583.1,519.2 650.7,519.2 676.3,518.1 990.6,518.1 990.6,367.5 1021.2,314.1 1145.4,314.1 
				1145.4,276.9 1145.4,104 			"/>
			<path d="M518.1,511H647l25.6-1.2h309.8V365.3l34-59.4h120.7V112.3H715.1l-63.5-84.9H511l-63.5,84.9H25.6v193.6h120.7l34,59.4
				v144.6h309.8L518.1,511z M654.5,527.5H510.6l-28-1.2H163.8V369.6l-27.1-47.3H9.1V95.8h430.2l63.5-84.9H660l63.5,84.9h430.2v226.6
				H1026l-27.1,47.3v156.7H680.1L654.5,527.5z"/>
		</g>
		<g>
			<polygon points="719.5,103.4 655.9,18.3 581.4,18.3 506.8,18.3 443.2,103.4 16.7,103.4 16.7,313.7 141,313.7 171.6,367.1 
				171.6,517.8 486.3,517.8 514.3,519 583.1,519 650.8,519 676.4,517.8 991.1,517.8 991.1,367.1 1021.7,313.7 1146,313.7 
				1146,276.4 1146,103.4 			"/>
			<path d="M518.1,510.7h129l25.6-1.2h310.2V364.9l34-59.5h120.8V111.6H715.3l-63.6-85H511l-63.6,85H25v193.8h120.8l34,59.5v144.7
				H490L518.1,510.7z M654.5,527.3h-144l-28-1.2H163.3V369.3l-27.1-47.4H8.4V95.1h430.7l63.6-85h157.4l63.6,85h430.7v226.8h-127.8
				l-27.1,47.4v156.8H680.2L654.5,527.3z"/>
		</g>
		<g>
			<polygon points="719.6,102.7 656,17.6 581.4,17.6 506.7,17.6 443.1,102.7 16.1,102.7 16.1,313.2 140.5,313.2 171.1,366.7 
				171.1,517.5 486.2,517.5 514.2,518.8 583.1,518.8 650.9,518.8 676.5,517.5 991.6,517.5 991.6,366.7 1022.2,313.2 1146.6,313.2 
				1146.6,275.9 1146.6,102.7 			"/>
			<path d="M518,510.5h129.1l25.7-1.2h310.5V364.5l34.1-59.6h121V111H715.5l-63.6-85.1H510.9L447.3,111H24.4v194h121l34.1,59.6
				v144.8h310.5L518,510.5z M654.6,527H510.5l-28.1-1.2H162.8V368.9l-27.1-47.4H7.8V94.4h431.2l63.6-85.1h157.6l63.6,85.1h431.2
				v227.1H1027l-27.1,47.4v156.9H680.3L654.6,527z"/>
		</g>
		<g>
			<polygon points="719.8,102 656.1,16.8 581.4,16.8 506.6,16.8 442.9,102 15.4,102 15.4,312.8 140,312.8 170.7,366.3 170.7,517.3 
				486.1,517.3 514.2,518.5 583.1,518.5 650.9,518.5 676.6,517.3 992,517.3 992,366.3 1022.7,312.8 1147.3,312.8 1147.3,275.5 
				1147.3,102 			"/>
			<path d="M517.9,510.3h129.3l25.7-1.3h310.9V364.2l34.1-59.6H1139V110.3H715.6l-63.7-85.2H510.8l-63.7,85.2H23.7v194.2h121.1
				l34.1,59.6V509h310.9L517.9,510.3z M654.7,526.8H510.4l-28.1-1.3h-320v-157l-27.2-47.5H7.1V93.8h431.6l63.7-85.2h157.8l63.7,85.2
				h431.6v227.3h-128.1l-27.2,47.5v157h-320L654.7,526.8z"/>
		</g>
		<g>
			<polygon points="719.9,101.4 656.2,16 581.4,16 506.6,16 442.8,101.4 14.8,101.4 14.8,312.4 139.5,312.4 170.2,366 170.2,517 
				486,517 514.1,518.3 583.1,518.3 651,518.3 676.7,517 992.5,517 992.5,366 1023.2,312.4 1147.9,312.4 1147.9,275 1147.9,101.4 
							"/>
			<path d="M517.8,510h129.4l25.7-1.3h311.2v-145l34.2-59.7h121.3V109.6H715.8L652,24.3H510.7L447,109.6H23.1v194.4h121.3l34.2,59.7
				v145h311.2L517.8,510z M654.8,526.6H510.3l-28.1-1.3H161.9V368.2l-27.2-47.5H6.5V93.1h432.1l63.8-85.3h157.9l63.8,85.3h432.1
				v227.6H1028l-27.2,47.5v157.1H680.5L654.8,526.6z"/>
		</g>
		<g>
			<polygon points="720.1,100.7 656.2,15.3 581.4,15.3 506.5,15.3 442.6,100.7 14.2,100.7 14.2,311.9 139,311.9 169.7,365.6 
				169.7,516.8 485.9,516.8 514,518.1 583.1,518.1 651.1,518.1 676.8,516.8 993,516.8 993,365.6 1023.7,311.9 1148.6,311.9 
				1148.6,274.5 1148.6,100.7 			"/>
			<path d="M517.8,509.8h129.6l25.7-1.3h311.6V363.4l34.2-59.8h121.4V109H715.9l-63.8-85.4H510.6L446.8,109H22.5v194.7h121.4
				l34.2,59.8v145.1h311.6L517.8,509.8z M654.9,526.4H510.2l-28.1-1.3H161.4V367.8l-27.2-47.6H5.8V92.4h432.6L502.3,7h158.1
				l63.8,85.4h432.6v227.8h-128.4l-27.2,47.6V525H680.6L654.9,526.4z"/>
		</g>
		<g>
			<polygon points="720.2,100 656.3,14.5 581.4,14.5 506.4,14.5 442.5,100 13.5,100 13.5,311.5 138.5,311.5 169.3,365.2 
				169.3,516.5 485.7,516.5 513.9,517.8 583.1,517.8 651.2,517.8 677,516.5 993.4,516.5 993.4,365.2 1024.2,311.5 1149.2,311.5 
				1149.2,274 1149.2,100 			"/>
			<path d="M517.7,509.5h129.7l25.8-1.4h311.9V363l34.2-59.8h121.5V108.3H716.1l-63.9-85.5H510.6l-63.9,85.5H21.8v194.9h121.5
				l34.2,59.8v145.1h311.9L517.7,509.5z M654.9,526.2H510.2l-28.2-1.4h-321V367.4l-27.3-47.6H5.2V91.7h433.1l63.9-85.5h158.3
				l63.9,85.5h433.1v228.1H1029l-27.3,47.6v157.4h-321L654.9,526.2z"/>
		</g>
		<g>
			<polygon points="720.4,99.4 656.4,13.7 581.4,13.7 506.3,13.7 442.3,99.4 12.9,99.4 12.9,311.1 138,311.1 168.8,364.9 
				168.8,516.2 485.6,516.2 513.8,517.6 583.1,517.6 651.3,517.6 677.1,516.2 993.9,516.2 993.9,364.9 1024.7,311.1 1149.8,311.1 
				1149.8,273.6 1149.8,99.4 			"/>
			<path d="M517.6,509.3h129.9l25.8-1.4h312.3V362.7l34.3-59.9h121.7V107.7H716.2l-64-85.6H510.5l-64,85.6H21.2v195.1h121.7
				l34.3,59.9v145.2h312.3L517.6,509.3z M655,525.9h-145l-28.2-1.4H160.5V367.1l-27.3-47.7H4.5V91h433.6l64-85.6h158.5l64,85.6
				h433.6v228.3h-128.7l-27.3,47.7v157.5H680.8L655,525.9z"/>
		</g>
		<g>
			<polygon points="720.6,98.7 656.5,13 581.4,13 506.2,13 442.2,98.7 12.2,98.7 12.2,310.6 137.5,310.6 168.4,364.5 168.4,516 
				485.5,516 513.8,517.4 583.1,517.4 651.3,517.4 677.2,516 994.4,516 994.4,364.5 1025.2,310.6 1150.5,310.6 1150.5,273.1 
				1150.5,98.7 			"/>
			<path d="M517.5,509.1h130l25.8-1.4H986V362.3l34.3-60h121.8V107H716.4l-64.1-85.7H510.4L446.3,107H20.6v195.3h121.8l34.3,60
				v145.3h312.6L517.5,509.1z M655.1,525.7H510l-28.2-1.4H160V366.7L132.7,319H3.9V90.4H438L502,4.7h158.7l64.1,85.7h434.1V319H1030
				l-27.3,47.7v157.6H680.9L655.1,525.7z"/>
		</g>
		<g>
			<polygon points="720.7,98 656.6,12.2 581.4,12.2 506.1,12.2 442,98 11.6,98 11.6,310.2 137,310.2 167.9,364.1 167.9,515.7 
				485.4,515.7 513.7,517.2 583.1,517.2 651.4,517.2 677.3,515.7 994.8,515.7 994.8,364.1 1025.7,310.2 1151.1,310.2 1151.1,272.6 
				1151.1,98 			"/>
			<path d="M517.5,508.8h130.2l25.9-1.5h313V361.9l34.4-60h121.9V106.3H716.5l-64.1-85.8h-142l-64.1,85.8H20v195.5h121.9l34.4,60
				v145.4h313L517.5,508.8z M655.2,525.5H509.9l-28.3-1.5H159.5V366.3l-27.3-47.8H3.2V89.7h434.6l64.1-85.8h158.8l64.1,85.8h434.6
				v228.9h-128.9l-27.3,47.8V524H681.1L655.2,525.5z"/>
		</g>
		<g>
			<polygon points="720.9,97.3 656.7,11.4 581.4,11.4 506.1,11.4 441.8,97.3 11,97.3 11,309.8 136.5,309.8 167.4,363.7 167.4,515.4 
				485.3,515.4 513.6,516.9 583.1,516.9 651.5,516.9 677.4,515.4 995.3,515.4 995.3,363.7 1026.2,309.8 1151.7,309.8 1151.7,272.1 
				1151.7,97.3 			"/>
			<path d="M517.4,508.6h130.3l25.9-1.5h313.3V361.5l34.4-60.1h122.1V105.7H716.7l-64.2-85.9H510.3L446,105.7H19.3v195.7h122.1
				l34.4,60.1v145.5h313.3L517.4,508.6z M655.3,525.3H509.8l-28.3-1.5H159.1V366l-27.4-47.8H2.6V89h435l64.2-85.9h159L725.1,89h435
				v229.1H1031l-27.4,47.8v157.8H681.2L655.3,525.3z"/>
		</g>
		<g>
			<polygon points="721,96.7 656.7,10.7 581.4,10.7 506,10.7 441.7,96.7 10.3,96.7 10.3,309.3 136,309.3 167,363.4 167,515.2 
				485.2,515.2 513.5,516.7 583.1,516.7 651.6,516.7 677.5,515.2 995.7,515.2 995.7,363.4 1026.7,309.3 1152.4,309.3 1152.4,271.7 
				1152.4,96.7 			"/>
			<path d="M517.3,508.3h130.4l25.9-1.5h313.7V361.2l34.4-60.2H1144V105H716.8l-64.3-86H510.2l-64.3,86H18.7v196h122.2l34.4,60.2
				v145.6H489L517.3,508.3z M655.4,525H509.7l-28.3-1.5H158.6V365.6l-27.4-47.9H1.9V88.3h435.5l64.3-86h159.2l64.3,86h435.5v229.4
				h-129.2l-27.4,47.9v157.9H681.3L655.4,525z"/>
		</g>
		<g>
			<polygon points="721.2,96 656.8,9.9 581.4,9.9 505.9,9.9 441.5,96 9.7,96 9.7,308.9 135.5,308.9 166.5,363 166.5,514.9 
				485.1,514.9 513.5,516.5 583.1,516.5 651.6,516.5 677.6,514.9 996.2,514.9 996.2,363 1027.2,308.9 1153,308.9 1153,271.2 
				1153,96 			"/>
			<path d="M517.3,508.1h130.6l26-1.6h314V360.8l34.5-60.2h122.3V104.4H717l-64.4-86.1H510.1l-64.4,86.1H18.1v196.2h122.3l34.5,60.2
				v145.7h314L517.3,508.1z M655.4,524.8H509.7l-28.4-1.6H158.1v-158l-27.4-47.9H1.3V87.6h436l64.4-86.1H661l64.4,86.1h436v229.6
				H1032l-27.4,47.9v158H681.4L655.4,524.8z"/>
		</g>
		<g>
			<polygon points="721.3,95.3 656.9,9.1 581.4,9.1 505.8,9.1 441.4,95.3 9,95.3 9,308.5 135,308.5 166,362.6 166,514.6 485,514.6 
				513.4,516.2 583.1,516.2 651.7,516.2 677.7,514.6 996.7,514.6 996.7,362.6 1027.7,308.5 1153.7,308.5 1153.7,270.7 1153.7,95.3 
							"/>
			<path d="M517.2,507.9h130.7l26-1.6h314.4V360.4l34.5-60.3h122.5V103.7H717.1l-64.4-86.2H510l-64.4,86.2H17.4v196.4h122.5
				l34.5,60.3v145.8h314.4L517.2,507.9z M655.5,524.6H509.6l-28.4-1.6H157.6V364.9l-27.5-48H0.6V87h436.5l64.4-86.2h159.5L725.5,87
				h436.5v229.9h-129.5l-27.5,48V523H681.5L655.5,524.6z"/>
		</g>
		<g>
			<polygon points="721.5,94.7 657,8.4 581.4,8.4 505.7,8.4 441.2,94.7 8.4,94.7 8.4,308 134.5,308 165.6,362.3 165.6,514.4 
				484.9,514.4 513.3,516 583.1,516 651.8,516 677.8,514.4 997.1,514.4 997.1,362.3 1028.2,308 1154.3,308 1154.3,270.2 
				1154.3,94.7 			"/>
			<path d="M517.1,507.6H648l26-1.6h314.7V360l34.5-60.4h122.6V103H717.3l-64.5-86.3H509.9L445.4,103H16.8v196.6h122.6L174,360V506
				h314.7L517.1,507.6z M655.6,524.4H509.5l-28.4-1.6H157.2V364.5l-27.5-48.1H0V86.3h437L501.5,0h159.7l64.5,86.3h437v230.1H1033
				l-27.5,48.1v158.3H681.6L655.6,524.4z"/>
		</g>
	</g>
	<g>
		<polygon points="721.5,94.3 657,7.7 581.4,7.7 505.7,7.7 441.2,94.3 8.5,94.3 8.5,308.3 134.6,308.3 165.6,362.7 165.6,515.1 
			484.9,515.1 513.5,515.2 583.3,515.2 651.9,515.2 677.8,515.1 997.1,515.1 997.1,362.7 1028.1,308.3 1154.2,308.3 1154.2,94.3 		
			"/>
		<polygon class="st0" points="721.5,94.3 657,7.7 581.4,7.7 505.7,7.7 441.2,94.3 8.5,94.3 8.5,308.3 134.6,308.3 165.6,362.7 
			165.6,515.1 484.9,515.1 513.5,515.2 583.3,515.2 651.9,515.2 677.8,515.1 997.1,515.1 997.1,362.7 1028.1,308.3 1154.2,308.3 
			1154.2,94.3 		"/>
		<polygon class="st1" points="721.5,94.3 657,7.7 581.4,7.7 505.7,7.7 441.2,94.3 8.5,94.3 8.5,308.3 134.6,308.3 165.6,362.7 
			165.6,515.1 484.9,515.1 513.5,515.2 583.3,515.2 651.9,515.2 677.8,515.1 997.1,515.1 997.1,362.7 1028.1,308.3 1154.2,308.3 
			1154.2,94.3 		"/>
	</g>
	<path d="M581.4,429.2"/>
	<g>
		<g>
			<g>
				<g>
					<path class="st2" d="M42.9,154.5c0-1.1,0-3.6,0-3.6s2.7,0,3.8,0h105.9c1,0,1.8,0.3,2.6,0.9c0.8,0.6,1.2,1.5,1.3,2.7v20.2
						c0,1-0.3,1.9-1,2.8c-0.7,0.9-1.6,1.3-2.9,1.3h-46.3v89.3c0,1-0.4,1.9-1.1,2.7c-0.7,0.8-1.6,1.2-2.8,1.2H78.6
						c-0.9,0-1.8-0.4-2.6-1.1s-1.2-1.6-1.2-2.7v-89.3H46.7c-1.1,0-2-0.4-2.7-1.1c-0.7-0.7-1.1-1.7-1.1-3.1V154.5z"/>
					<path class="st2" d="M144.4,154.5c0.1-0.9,0.4-1.8,1-2.5c0.6-0.7,1.5-1.1,2.5-1.1h24.2c0.8,0,3.8,0,3.8,0s0,2.6,0,3.6v38.7
						h40.5v-38.7c0-1,0-3.6,0-3.6s2.5,0,3.6,0H244c1.1,0,4.1,0,4.1,0s0,2.2,0,3.4v114.1c0,1.2-0.4,2.1-1.1,2.7
						c-0.7,0.6-1.6,0.9-2.8,0.9h-24.1c-1.1,0-2-0.3-2.6-0.9c-0.7-0.6-1-1.5-1-2.7v-46.3H176v46.3c0,1.1-0.4,2-1.1,2.7
						c-0.7,0.6-1.7,0.9-3,0.9h-24c-2.3,0-3.5-1.1-3.5-3.2V154.5z"/>
					<path class="st2" d="M256.3,154.7c0-1.1,0-3.8,0-3.8s2.4,0,3.6,0h52.7c5.6,0,10.8,1,15.7,3.1c4.9,2.1,9.2,4.9,12.8,8.5
						c3.6,3.6,6.5,7.8,8.6,12.6c2.1,4.8,3.1,9.9,3.1,15.4c0,3.7-0.5,7.2-1.5,10.6c-1,3.3-2.4,6.5-4.2,9.4c-1.8,2.9-3.9,5.5-6.4,7.9
						c-2.5,2.4-5.2,4.4-8.1,6.1l21,39.5c0.4,0.8,0.9,1.7,1.5,2.7c0.6,1,0.9,1.9,0.9,2.7c0,0.9-0.3,1.5-0.9,2
						c-0.6,0.5-1.3,0.7-2.3,0.7h-28c-0.9,0-1.8-0.3-2.5-0.8c-0.7-0.5-1.2-1.3-1.4-2.2l-19.8-37.3h-13.2v36.8c0,2.3-1.3,3.5-3.8,3.5
						h-24.2c-1.1,0-2-0.3-2.6-0.9c-0.7-0.6-1-1.5-1-2.7V154.7z M320.2,190.9c0-1.6-0.3-3.3-0.9-4.9c-0.6-1.6-1.4-3.1-2.5-4.5
						c-1.1-1.4-2.4-2.5-3.9-3.4c-1.5-0.9-3.2-1.5-5.1-1.8c-1.5-0.1-3-0.2-4.3-0.3c-1.3-0.1-2.8-0.1-4.4-0.1h-11.3v29.9h15
						c1,0,1.8,0,2.6-0.1c0.8-0.1,1.6-0.1,2.5-0.2c1.9-0.2,3.6-0.8,5.1-1.7c1.5-0.9,2.8-2,3.8-3.3c1-1.3,1.8-2.8,2.4-4.5
						C319.9,194.3,320.2,192.6,320.2,190.9z"/>
					<path class="st2" d="M349,211.6c0-5.8,0.7-11.3,2.2-16.6c1.5-5.3,3.6-10.3,6.3-14.9c2.7-4.6,6-8.9,9.8-12.7
						c3.8-3.8,8-7.1,12.6-9.7c4.6-2.7,9.6-4.8,14.9-6.3c5.3-1.5,10.8-2.2,16.6-2.2c5.7,0,11.2,0.7,16.6,2.2
						c5.3,1.5,10.3,3.6,14.9,6.3c4.6,2.7,8.8,5.9,12.7,9.7c3.8,3.8,7.1,8,9.8,12.7c2.7,4.6,4.8,9.6,6.3,14.9
						c1.5,5.3,2.2,10.8,2.2,16.6c0,5.8-0.7,11.3-2.2,16.6c-1.5,5.3-3.6,10.3-6.3,14.8c-2.7,4.6-5.9,8.8-9.8,12.6
						c-3.8,3.8-8,7-12.7,9.7c-4.6,2.7-9.6,4.8-14.9,6.3s-10.9,2.2-16.6,2.2c-5.8,0-11.3-0.7-16.6-2.2s-10.3-3.6-14.9-6.3
						c-4.6-2.7-8.8-6-12.6-9.7c-3.8-3.8-7-8-9.8-12.6c-2.7-4.6-4.8-9.5-6.3-14.8C349.7,222.9,349,217.4,349,211.6z M380.5,211.5
						c0,4.5,0.8,8.7,2.3,12.6c1.5,3.9,3.7,7.3,6.4,10.2c2.7,2.9,6,5.2,9.7,6.9c3.7,1.7,7.9,2.5,12.4,2.5c4.5,0,8.6-0.8,12.4-2.5
						c3.8-1.7,7-3.9,9.8-6.9c2.7-2.9,4.9-6.3,6.4-10.2c1.5-3.9,2.3-8.1,2.3-12.6c0-4.5-0.8-8.7-2.3-12.6c-1.5-3.9-3.7-7.4-6.4-10.3
						c-2.7-2.9-6-5.2-9.8-6.9c-3.8-1.7-7.9-2.5-12.4-2.5c-4.5,0-8.6,0.8-12.4,2.5c-3.7,1.7-7,4-9.7,6.9c-2.7,2.9-4.9,6.4-6.4,10.3
						C381.3,202.9,380.5,207.1,380.5,211.5z"/>
					<path class="st2" d="M733.6,211.6c0,5.8-0.7,11.2-2.2,16.4s-3.6,10-6.3,14.5c-2.7,4.5-6,8.6-9.7,12.2c-3.8,3.6-8,6.7-12.6,9.3
						c-4.6,2.6-9.6,4.5-14.9,5.9c-5.3,1.4-10.8,2.1-16.6,2.1h-40.2c-1,0-1.8-0.2-2.6-0.7c-0.8-0.4-1.1-1.4-1.1-2.8V154.7
						c0-1.1,0.3-2.1,0.9-2.8c0.6-0.7,1.6-1.1,2.8-1.1h40.2c5.7,0,11.2,0.7,16.5,2.1c5.3,1.4,10.2,3.4,14.8,6
						c4.6,2.6,8.8,5.7,12.6,9.4c3.8,3.6,7.1,7.7,9.7,12.2c2.7,4.5,4.8,9.4,6.3,14.6C732.9,200.4,733.6,205.9,733.6,211.6z
						 M659,180.1v62.7h6.9c1.3,0,2.5,0,3.7-0.1c1.2-0.1,2.4-0.2,3.6-0.3c4.1-0.3,7.9-1.3,11.4-3c3.5-1.7,6.6-3.8,9.3-6.5
						c2.6-2.7,4.7-5.9,6.2-9.5c1.5-3.6,2.2-7.6,2.2-11.9c0-4.6-0.9-8.8-2.6-12.6c-1.7-3.8-4-7.2-7-10c-2.9-2.8-6.4-5-10.3-6.5
						c-3.9-1.5-8.1-2.3-12.6-2.3H659z"/>
					<path class="st2" d="M733,211.6c0-5.8,0.7-11.3,2.2-16.6c1.5-5.3,3.6-10.3,6.3-14.9c2.7-4.6,6-8.9,9.8-12.7
						c3.8-3.8,8-7.1,12.6-9.7c4.6-2.7,9.6-4.8,14.9-6.3c5.3-1.5,10.8-2.2,16.6-2.2c5.7,0,11.2,0.7,16.6,2.2
						c5.3,1.5,10.3,3.6,14.9,6.3c4.6,2.7,8.8,5.9,12.7,9.7c3.8,3.8,7.1,8,9.8,12.7c2.7,4.6,4.8,9.6,6.3,14.9
						c1.5,5.3,2.2,10.8,2.2,16.6c0,5.8-0.7,11.3-2.2,16.6c-1.5,5.3-3.6,10.3-6.3,14.8c-2.7,4.6-5.9,8.8-9.8,12.6
						c-3.8,3.8-8,7-12.7,9.7c-4.6,2.7-9.6,4.8-14.9,6.3c-5.3,1.5-10.9,2.2-16.6,2.2c-5.8,0-11.3-0.7-16.6-2.2
						c-5.3-1.5-10.3-3.6-14.9-6.3c-4.6-2.7-8.8-6-12.6-9.7c-3.8-3.8-7-8-9.8-12.6c-2.7-4.6-4.8-9.5-6.3-14.8
						C733.7,222.9,733,217.4,733,211.6z M764.5,211.5c0,4.5,0.8,8.7,2.3,12.6c1.5,3.9,3.7,7.3,6.4,10.2c2.7,2.9,6,5.2,9.7,6.9
						c3.7,1.7,7.9,2.5,12.4,2.5c4.5,0,8.6-0.8,12.4-2.5c3.8-1.7,7-3.9,9.8-6.9c2.7-2.9,4.9-6.3,6.4-10.2c1.5-3.9,2.3-8.1,2.3-12.6
						c0-4.5-0.8-8.7-2.3-12.6c-1.5-3.9-3.7-7.4-6.4-10.3c-2.7-2.9-6-5.2-9.8-6.9c-3.8-1.7-7.9-2.5-12.4-2.5c-4.5,0-8.6,0.8-12.4,2.5
						c-3.7,1.7-7,4-9.7,6.9c-2.7,2.9-4.9,6.4-6.4,10.3C765.3,202.9,764.5,207.1,764.5,211.5z"/>
					<path class="st2" d="M1013.1,154.5c0-1,0.3-1.8,0.9-2.5c0.6-0.7,1.5-1.1,2.7-1.1h26.7c0.8,0,2.7,0,2.7,0s1.2,1.6,1.8,2.5
						c6.9,11.1,13.8,22.1,20.6,33c6.8,10.8,13.7,21.8,20.6,33V154l0-3.1c0,0,2.7,0,3.6,0h23.2c1.1,0,4,0,4,0s0,2.4,0,3.6v114.4
						c0,1.1-0.3,1.9-1,2.4c-0.7,0.5-1.5,0.8-2.7,0.8h-26c-0.7,0-1.3-0.2-1.9-0.7c-0.5-0.5-1.1-1.1-1.7-2
						c-7.2-12-14.4-23.8-21.5-35.5c-7.1-11.7-14.2-23.5-21.5-35.5v70.1c0,1.2-0.3,2.1-0.8,2.7c-0.5,0.6-1.5,0.9-2.9,0.9h-23.2
						c-1.3,0-2.2-0.3-2.7-1c-0.6-0.7-0.9-1.5-0.9-2.5V154.5z"/>
				</g>
				<g>
					<path class="st2" d="M559,196.2l-16.1,39.4c-1.8,4.9-3.7,9.8-5.5,14.6c-1.8,4.8-3.6,9.6-5.4,14.6c-0.3,0.8-0.6,1.6-0.9,2.4
						c-0.4,0.8-0.8,1.6-1.3,2.4c-0.5,0.7-1,1.3-1.7,1.8c-0.6,0.5-1.3,0.7-2.2,0.7h-0.2h-19.7c-1.7,0-2.9-0.6-3.4-1.7
						c-0.5-0.9-1.1-1.9-1.5-2.9c-0.5-1-0.9-2-1.3-2.9c-7-18.5-14-36.8-21-55c-7-18.2-21-55.5-21.1-55.7c-0.1-0.2-1-2.9-1-2.9
						s1.9,0,3.9,0h26.3c2.1,0,3.2,0,3.2,0l26,77.4l24-77.4c0,0,1.3,0,3.5,0h26.5c1.3,0,4.3,0,4.3,0"/>
					<path class="st2" d="M555.8,269.5c0.3,0.8,0.7,1.4,1.3,1.8c0.6,0.5,1.5,0.7,2.7,0.7h19.7h0.2c1.1,0,2-0.4,2.8-1.1
						c0.8-0.7,1.3-1.4,1.5-2c3.6-9.5,7.4-19,11.2-28.6c3.8-9.5,7.7-19.1,11.6-28.6c3.9-9.5,7.8-19,11.6-28.5
						c3.9-9.5,7.6-19.1,11.3-28.6v-0.2c0.1-0.2,0.1-0.5,0.1-0.9c0-0.8-0.3-1.4-0.8-1.8c-0.5-0.5-1.4-0.7-2.7-0.7h-25.7
						c-2.2,0-3.4,0-3.4,0l-27.5,77.3l-8-23.5L546.2,244"/>
					<line class="st2" x1="561.9" y1="204.7" x2="561.9" y2="204.7"/>
				</g>
				<g>
					<path class="st2" d="M862.8,209.6c7,18.2,13.9,36.5,21,55c0.4,1,0.8,2,1.3,2.9c0.5,1,1,1.9,1.5,2.9c0.5,1.1,1.7,1.7,3.4,1.7
						h19.7h0.2c0.8,0,1.5-0.2,2.2-0.7c0.6-0.5,1.2-1.1,1.7-1.8c0.5-0.7,0.9-1.5,1.3-2.4c0.4-0.8,0.7-1.6,0.9-2.4
						c1.8-4.9,3.6-9.8,5.4-14.6c1.8-4.8,3.6-9.6,5.5-14.6l16.1-39.4l14.5-41.8c0.1-0.2,1.1-3.4,1.1-3.4s-3.2,0-4.5,0h-26.5
						c-2.2,0-3.7,1-4.5,3.1l-23.1,74.3l-25-74.3c-0.8-2.1-2.2-3.1-4.2-3.1h-26.3c-2,0-4,0-4,0s1.1,2.7,1.1,2.9"/>
					<path class="st2" d="M939.8,269.5c0.3,0.8,0.7,1.4,1.3,1.8c0.6,0.5,1.5,0.7,2.7,0.7h19.7h0.2c1.1,0,2-0.4,2.8-1.1
						c0.8-0.7,1.3-1.4,1.5-2c3.6-9.5,7.4-19,11.2-28.6c3.8-9.5,7.7-19.1,11.6-28.6c3.9-9.5,7.8-19,11.6-28.5
						c3.9-9.5,7.6-19.1,11.3-28.6v-0.2c0.1-0.2,0.1-0.5,0.1-0.9c0-0.8-0.3-1.4-0.8-1.8c-0.5-0.5-1.4-0.7-2.7-0.7h-25.7
						c-2.2,0-3.4,0-3.4,0l-27.5,77.3l-8-23.5l-15.8,39.3"/>
					<line class="st2" x1="945.9" y1="204.8" x2="945.9" y2="204.8"/>
				</g>
				<rect x="1010.6" y="150.9" class="st2" width="8.1" height="4.5"/>
				<rect x="622.8" y="150.9" class="st2" width="13" height="7.1"/>
			</g>
			<g>
				<path class="st2" d="M166.8,293.6c0-1.1,0.4-2,1.1-2.6c0.7-0.6,1.6-1,2.7-1h87.8c1,0,1.8,0.3,2.6,0.9c0.8,0.6,1.2,1.5,1.3,2.7
					v20.2c0,1-0.3,1.9-1,2.8c-0.7,0.9-1.6,1.3-2.9,1.3h-28.1v89.3c0,1,0,3.8,0,3.8s-2.7,0-3.8,0h-23.9c-0.9,0-4,0-4,0
					s0.2-2.7,0.2-3.8V318h-28.1c-1.1,0-2-0.4-2.7-1.1c-0.7-0.7-1.1-1.7-1.1-3.1V293.6z"/>
				<path class="st2" d="M270.1,293.6c0.1-0.9,0.4-1.8,1-2.5c0.6-0.7,1.5-1.1,2.5-1.1h24.2c0.8,0,1.7,0.3,2.5,1
					c0.9,0.7,1.3,1.5,1.3,2.6v38.7h40.5v-38.7c0-1,0.3-1.8,1-2.5c0.7-0.7,1.6-1.1,2.6-1.1h23.8c1.1,0,2,0.3,2.8,0.8
					c0.8,0.5,1.2,1.4,1.2,2.6v114.1c0,1.2,0,3.6,0,3.6s-2.7,0-3.8,0h-24.1c-1.1,0-3.6,0-3.6,0l-0.1-3.6v-46.3h-40.5v46.3
					c0,1.1,0,3.6,0,3.6s-2.9,0-4.1,0h-24c-2.3,0-3.5,0-3.5,0V293.6z"/>
				<path class="st2" d="M419.4,362.8c0,4,0.6,7.4,1.7,10.2c1.1,2.8,2.6,5.1,4.4,6.9s4,3.1,6.4,3.9c2.4,0.8,4.9,1.2,7.6,1.2
					c2.7,0,5.3-0.5,7.7-1.4c2.4-1,4.5-2.4,6.4-4.2c1.8-1.9,3.3-4.2,4.3-7c1.1-2.8,1.6-6,1.6-9.6v-69.2c0-1,0.3-1.8,1-2.5
					c0.7-0.7,1.6-1.1,2.7-1.1H487c1.3,0,2.2,0.4,2.9,1.1c0.7,0.7,1.1,1.6,1.1,2.5v68.8c0,9.5-1.4,17.5-4.2,24
					c-2.8,6.5-6.6,11.7-11.3,15.6s-10.2,6.8-16.4,8.5c-6.2,1.7-12.8,2.6-19.6,2.6c-6.9,0-13.4-0.9-19.7-2.7
					c-6.3-1.8-11.7-4.6-16.5-8.6c-4.7-4-8.5-9.2-11.3-15.7c-2.8-6.4-4.2-14.3-4.2-23.7v-68.8c0-0.9,0.3-1.8,0.9-2.5
					c0.6-0.7,1.4-1.1,2.3-1.1h24.4c0.8,0,1.7,0.3,2.6,1c0.9,0.7,1.3,1.5,1.3,2.6V362.8z"/>
				<path class="st2" d="M502.6,293.8c0-1.1,0.3-2.1,0.9-2.7c0.6-0.7,1.5-1,2.7-1h52.7c5.6,0,10.8,1,15.7,3.1
					c4.9,2.1,9.2,4.9,12.8,8.5c3.6,3.6,6.5,7.8,8.6,12.6c2.1,4.8,3.1,9.9,3.1,15.4c0,3.7-0.5,7.2-1.5,10.6c-1,3.3-2.4,6.5-4.2,9.4
					c-1.8,2.9-3.9,5.5-6.4,7.9c-2.5,2.4-5.2,4.4-8.1,6.1l21,39.5c0.4,0.8,0.9,1.7,1.5,2.7c0.6,1,3.4,5.4,3.4,5.4s-4.7,0-5.7,0h-28
					c-0.9,0-2.4,0-2.4,0l-1.6-3.1l-19.8-37.3h-13.2v40.3c0,0-1.3,0-3.8,0h-24.2c-1.1,0-3.6,0-3.6,0s0-2.4,0-3.5V293.8z M566.4,330
					c0-1.6-0.3-3.3-0.9-4.9c-0.6-1.6-1.4-3.1-2.5-4.5c-1.1-1.4-2.4-2.5-3.9-3.4c-1.5-0.9-3.2-1.5-5.1-1.8c-1.5-0.1-2.9-0.2-4.3-0.3
					c-1.3-0.1-2.8-0.1-4.4-0.1h-11.3v29.9h15c1,0,1.8,0,2.6-0.1c0.8-0.1,1.6-0.1,2.5-0.2c1.9-0.2,3.6-0.8,5.1-1.7s2.8-2,3.8-3.3
					c1-1.3,1.8-2.8,2.4-4.5C566.2,333.4,566.4,331.7,566.4,330z"/>
				<path class="st2" d="M620.2,372c0.9,0.8,2.1,1.8,3.5,3.1c1.4,1.3,3.1,2.5,4.9,3.8c2.8,1.8,5.5,3.3,8.2,4.3
					c2.7,1,5.6,1.5,8.6,1.5c2.8,0,5.1-0.3,7-0.9c1.9-0.6,3.4-1.5,4.4-2.5c1.1-1,1.9-2.2,2.3-3.6c0.5-1.4,0.7-2.8,0.7-4.3
					c0-1.7-0.6-3.2-1.9-4.5c-1.3-1.3-2.8-2.5-4.7-3.5c-1.8-1-3.8-1.9-5.8-2.6c-2-0.7-3.8-1.3-5.2-1.8c-6.5-2.3-12.2-4.7-17.1-7.4
					c-4.9-2.6-9-5.6-12.2-8.8c-3.3-3.2-5.7-6.8-7.3-10.7c-1.6-3.9-2.4-8.2-2.4-13c0-5.1,1-9.6,3.1-13.8c2-4.1,4.9-7.7,8.7-10.6
					c3.8-2.9,8.3-5.2,13.7-6.8c5.3-1.6,11.3-2.4,17.9-2.4c4.9,0,9.7,0.6,14.2,1.7c4.5,1.1,9,2.9,13.4,5.3c1.8,1.1,3.6,2.2,5.3,3.4
					c1.7,1.2,3.1,2.3,4.4,3.4c1.3,1.1,2.2,2.1,3,3.1c0.7,1,1.1,1.8,1.1,2.5c0,0.7-0.2,1.4-0.5,2c-0.4,0.6-0.9,1.3-1.6,2l-12.5,13.3
					c-0.9,0.9-1.8,1.4-2.8,1.4c-0.8,0-1.5-0.2-2.1-0.7c-0.6-0.4-1.3-1-2.1-1.6l-0.7-0.7c-1.1-0.9-2.3-1.9-3.6-2.9
					c-1.3-1-2.8-1.9-4.3-2.7c-1.5-0.8-3.1-1.4-4.8-2c-1.7-0.5-3.4-0.8-5.1-0.8c-1.8,0-3.5,0.2-5.1,0.4c-1.6,0.3-3,0.8-4.2,1.4
					c-1.2,0.7-2.1,1.5-2.9,2.6c-0.7,1.1-1.1,2.4-1.1,3.9c0,1.5,0.4,2.8,1.1,4c0.8,1.1,1.9,2.1,3.4,3.1s3.4,1.8,5.7,2.7
					c2.3,0.8,4.9,1.8,7.9,2.7c5.8,1.9,11.1,3.9,15.9,6c4.9,2.1,9.1,4.6,12.6,7.4c3.5,2.9,6.3,6.3,8.3,10.2s3,8.8,3,14.4
					c0,6-1.2,11.4-3.7,16.3c-2.4,4.9-5.8,9-10.1,12.4c-4.3,3.4-9.3,6.1-15,8c-5.8,1.9-12,2.8-18.6,2.8c-6.3,0-12.4-1.1-18.4-3.4
					c-6-2.2-11.7-5.2-16.9-9c-2.2-1.6-4-3.1-5.5-4.7c-1.5-1.5-2.7-2.8-3.5-3.7l-0.2-0.2c-0.1-0.1-0.1-0.2-0.2-0.2
					c-0.1,0-0.1-0.1-0.2-0.1c-0.1-0.1-0.1-0.2-0.2-0.2c-0.1,0-0.1-0.1-0.2-0.1c-1.3-1.4-1.9-2.5-1.9-3.3c0-0.9,0.6-2,1.9-3.1
					l14.1-13.5c1.1-0.8,2.1-1.2,2.8-1.2c0.5,0,1,0.2,1.6,0.5C618.8,370.8,619.4,371.3,620.2,372z"/>
				<path class="st2" d="M804.6,350.7c0,5.8-0.7,11.2-2.2,16.4c-1.5,5.2-3.6,10-6.3,14.5c-2.7,4.5-6,8.6-9.7,12.2
					c-3.8,3.6-8,6.7-12.6,9.3c-4.6,2.6-9.6,4.5-14.9,5.9c-5.3,1.4-10.8,2.1-16.6,2.1h-40.2c-1,0-3.8,0-3.8,0s0-2,0-3.4V293.8
					c0-1.1,0.3-2.1,0.9-2.8c0.6-0.7,1.6-1.1,2.8-1.1h40.2c5.7,0,11.2,0.7,16.5,2.1c5.3,1.4,10.2,3.4,14.8,6
					c4.6,2.6,8.8,5.7,12.6,9.4c3.8,3.6,7.1,7.7,9.7,12.2c2.7,4.5,4.8,9.4,6.3,14.6C803.8,339.5,804.6,345,804.6,350.7z M730,319.2
					v62.7h6.9c1.3,0,2.5,0,3.7-0.1c1.2-0.1,2.4-0.2,3.6-0.3c4.1-0.3,7.9-1.3,11.4-3c3.5-1.7,6.6-3.8,9.3-6.5
					c2.6-2.7,4.7-5.9,6.2-9.5c1.5-3.6,2.2-7.6,2.2-11.9c0-4.6-0.9-8.8-2.6-12.6c-1.7-3.8-4-7.2-7-10c-2.9-2.8-6.4-5-10.3-6.5
					c-3.9-1.5-8.1-2.3-12.6-2.3H730z"/>
				<path class="st2" d="M838.5,293.2c0.1-0.3,0.2-0.7,0.5-1.1c0.3-0.4,0.7-0.7,1.1-1.1c0.4-0.3,0.9-0.6,1.4-0.8
					c0.5-0.2,0.9-0.3,1.4-0.3h20.9c0.9,0,1.7,0.3,2.4,0.9c0.7,0.6,1.1,1.1,1.5,1.5l2,4.6l42.8,110.4c0.4,1.1,1.5,3.7,1.5,3.7
					s-3.4,0-4.9,0h-23.4c-1.3,0-3.2,0-3.2,0s-0.9-1.9-1.2-3c-1.1-2.8-2.1-5.5-3.2-8.3c-1-2.7-2.1-5.5-3.1-8.3h-43.3
					c-1,2.8-2.1,5.5-3.1,8.3c-1.1,2.7-4.1,11.3-4.1,11.3s-1.2,0-3.2,0h-24.1c-1,0-4.4,0-4.4,0s1-2.2,1.4-3.3L838.5,293.2z
					 M853.4,328.1c-1,2.8-2.1,5.8-3.1,9c-1.1,3.2-2.1,6.4-3.1,9.7c-1,3.3-2.1,6.5-3.1,9.7c-1.1,3.2-2.1,6.2-3.1,8.9h25L853.4,328.1z
					"/>
				<path class="st2" d="M940.5,334.7l19.7-42.2c0.3-0.7,0.6-1.1,0.8-1.4c0.2-0.3,0.4-0.5,0.7-0.7c0.2-0.1,0.4-0.2,0.7-0.2
					c0.2,0,0.5-0.1,0.9-0.2h31.4c0.4,0,0.7,0.1,0.9,0.4c0.2,0.2,0.4,0.5,0.4,0.9c0,0.6-0.4,1.3-1.1,2l-38.7,68.4v49.4
					c0,0-1.2,0-3.7,0H928c-1.1,0-3.5,0-3.5,0l0.1-3.8v-45.8L886,293.3c-0.7-0.7-1.1-1.4-1.1-2c0-0.3,0.1-0.6,0.3-0.9
					c0.2-0.2,0.5-0.4,0.9-0.4h31.4c0.4,0.1,0.7,0.2,0.9,0.2c0.2,0,0.4,0.1,0.7,0.2c0.2,0.1,0.4,0.4,0.7,0.7c0.2,0.3,0.5,0.8,0.9,1.4
					L940.5,334.7z"/>
			</g>
		</g>
		<g>
			<path d="M851.9,213.8c-0.5,7-2.3,13.8-5,20.3c-2.7,6.5-6.6,12.5-11.4,17.6c-2.5,2.5-5.2,4.7-8.1,6.7c-2.9,2-6.1,3.5-9.3,4.9
				c-1.7,0.6-3.3,1.2-5,1.7c-0.8,0.2-1.7,0.5-2.5,0.7L808,266l-1.3,0.3l-1.3,0.2l-2.6,0.3c-1.7,0.2-3.5,0.2-5.2,0.4
				c6.9-0.6,13.8-2.1,20.2-4.7c3.2-1.4,6.3-2.9,9.1-4.9c2.8-2,5.5-4.2,7.9-6.6c4.8-4.9,8.6-10.9,11.4-17.2c1.4-3.2,2.6-6.4,3.5-9.8
				C850.8,220.6,851.5,217.2,851.9,213.8z"/>
		</g>
		<g>
			<path d="M664.7,155.2c-2.7,0.1-5.4,0.2-8.1,0.2l-8.1,0.1c-2.7,0.1-5.4,0-8.1,0.1l-8.1,0l0.5-0.5l0,5.2c0,1.7,0,3.5-0.1,5.2
				c-0.1,3.5-0.2,7-0.4,10.5c-0.2-3.5-0.3-7-0.4-10.5c-0.1-1.7-0.1-3.5-0.1-5.2l0-5.2l0-0.5l0.5,0l8.1,0c2.7,0,5.4,0,8.1,0.1
				l8.1,0.1C659.3,155,662,155,664.7,155.2z"/>
		</g>
		<g>
			<path d="M79.6,185.6c0.2,6.3,0.3,12.7,0.4,19c0.1,6.3,0.1,12.7,0.1,19c0,6.3,0,12.7-0.1,19l-0.1,9.5c-0.1,3.2-0.1,6.3-0.2,9.5
				c-0.1-3.2-0.2-6.3-0.2-9.5l-0.1-9.5c-0.1-6.3-0.1-12.7-0.1-19c0-6.3,0-12.7,0.1-19C79.3,198.3,79.4,191.9,79.6,185.6z"/>
		</g>
		<g>
			<path d="M146.7,155c4.2-0.2,8.5-0.3,12.7-0.4c4.2-0.1,8.5-0.1,12.7-0.1l0.5,0l0,0.5c0,2.4,0,4.7,0,7.1l-0.1,7.1l-0.1,7.1
				c-0.1,2.4-0.1,4.7-0.3,7.1c-0.1-2.4-0.2-4.7-0.3-7.1l-0.1-7.1l-0.1-7.1c0-2.4-0.1-4.7,0-7.1l0.5,0.5c-4.2,0-8.5,0-12.7-0.1
				C155.1,155.3,150.9,155.2,146.7,155z"/>
		</g>
		<g>
			<path d="M327.1,160.7c1.7,0.4,3.2,1.1,4.7,1.9c1.5,0.8,2.9,1.7,4.3,2.8c2.7,2.1,5,4.7,6.9,7.6c0.4,0.7,0.8,1.5,1.3,2.2
				c0.4,0.7,0.8,1.5,1.1,2.3c0.3,0.8,0.7,1.6,1,2.4l0.7,2.5c0.1,0.4,0.3,0.8,0.3,1.2l0.2,1.3l0.5,2.5c0.2,1.7,0.3,3.4,0.4,5.1
				c-0.3-1.7-0.5-3.3-0.9-5L347,185l-0.3-1.2c-0.1-0.4-0.3-0.8-0.4-1.2l-0.8-2.4c-0.3-0.8-0.7-1.5-1-2.3l-0.5-1.1
				c-0.2-0.4-0.4-0.7-0.6-1.1c-0.4-0.7-0.8-1.5-1.2-2.2c-1.8-2.8-4-5.3-6.5-7.5C333.1,163.8,330.3,162,327.1,160.7z"/>
		</g>
		<g>
			<path d="M359.9,232.3c1.4,2.7,3.1,5.4,4.9,7.9c1.8,2.5,3.7,5,5.7,7.3c4.1,4.6,8.7,8.8,13.9,12.1c5.1,3.4,10.9,5.8,16.9,7.2
				c3,0.7,6.1,1.2,9.1,1.3c3.1,0.2,6.2,0,9.3-0.2c-6.1,1-12.5,1-18.6-0.3c-6.1-1.3-12-3.7-17.3-7.1c-2.6-1.7-5.1-3.6-7.4-5.7
				c-2.3-2.1-4.5-4.3-6.5-6.7C365.9,243.2,362.4,238,359.9,232.3z"/>
		</g>
		<g>
			<path d="M510.2,266.9c4.6-0.2,9.2-0.3,13.8-0.4l-0.4,0.3l3.3-8.7c1.1-2.9,2.3-5.8,3.4-8.6c1.1-2.9,2.3-5.7,3.5-8.6
				c1.2-2.9,2.4-5.7,3.7-8.5c-1,2.9-2,5.9-3.1,8.8c-1.1,2.9-2.1,5.8-3.3,8.7c-1.1,2.9-2.2,5.8-3.4,8.6l-3.5,8.6l-0.1,0.3l-0.3,0
				C519.4,267.2,514.8,267.1,510.2,266.9z"/>
		</g>
		<g>
			<path d="M998.2,179.2c-2.5,6.5-5.1,13-7.7,19.5l-7.9,19.4l-8.1,19.3l-4.1,9.6c-1.4,3.2-2.8,6.4-4.2,9.6c1.2-3.3,2.5-6.5,3.8-9.8
				l3.9-9.7l7.9-19.4l8.1-19.3C992.6,192,995.4,185.5,998.2,179.2z"/>
		</g>
		<g>
			<path d="M1068.6,231c2,3,3.9,6.1,5.9,9.2c1.9,3.1,3.8,6.2,5.7,9.3c1.9,3.1,3.8,6.2,5.6,9.3c1.8,3.1,3.7,6.2,5.5,9.4l-0.3-0.2
				c4.5,0.1,8.9,0.2,13.4,0.4c-4.5,0.2-8.9,0.3-13.4,0.4l-0.2,0l-0.1-0.2c-1.9-3.1-3.8-6.2-5.7-9.3c-1.9-3.1-3.7-6.2-5.6-9.4
				c-1.9-3.1-3.7-6.3-5.5-9.4C1072.1,237.3,1070.3,234.2,1068.6,231z"/>
		</g>
		<g>
			<path d="M245.9,314.2c-3.4,0.1-6.7,0.3-10.1,0.3c-3.4,0.1-6.7,0.1-10.1,0.1l0.5-0.5c0,2.8,0.1,5.7,0,8.5l-0.1,8.5
				c0,2.8-0.1,5.7-0.2,8.5c-0.1,2.8-0.2,5.7-0.3,8.5c-0.1-2.8-0.2-5.7-0.3-8.5c0-2.8-0.1-5.7-0.2-8.5l-0.1-8.5c0-2.8,0-5.7,0-8.5
				l0-0.5l0.5,0c3.4,0,6.7,0.1,10.1,0.1C239.2,313.9,242.5,314,245.9,314.2z"/>
		</g>
		<g>
			<path d="M368.2,327.8c0.2,6.4,0.3,12.8,0.4,19.3c0.1,6.4,0.1,12.8,0.1,19.3l-0.1,19.3l-0.1,9.6c-0.1,3.2-0.1,6.4-0.2,9.6
				c-0.1-3.2-0.2-6.4-0.2-9.6l-0.1-9.6l-0.1-19.3c0-6.4,0-12.8,0.1-19.3C367.9,340.6,368,334.2,368.2,327.8z"/>
		</g>
		<g>
			<path d="M464,356.9c0.2,2,0.4,4,0.5,5.9c0.1,2,0.1,4-0.1,6c0,0.5-0.1,1-0.2,1.5l-0.3,1.5c-0.1,1-0.5,2-0.8,2.9
				c-0.7,1.9-1.5,3.8-2.8,5.4c-1.2,1.6-2.6,3.1-4.2,4.4c-1.6,1.2-3.3,2.3-5.2,3.1c-3.7,1.6-7.8,2.2-11.7,2.2c2-0.2,4-0.4,5.9-0.9
				c1-0.2,1.9-0.5,2.8-0.8c0.9-0.4,1.8-0.7,2.7-1.1c3.5-1.6,6.7-4.1,8.9-7.3c1.2-1.5,2-3.3,2.7-5.1c0.6-1.8,1.1-3.7,1.3-5.7
				C464.2,364.9,464.1,360.9,464,356.9z"/>
		</g>
		<g>
			<path d="M551.2,369.2c1.9,3.2,3.8,6.4,5.6,9.6c1.8,3.2,3.6,6.5,5.3,9.7c1.7,3.3,3.5,6.5,5.1,9.8l2.5,5c0.8,1.7,1.6,3.3,2.4,5
				c-1-1.6-1.9-3.2-2.8-4.8l-2.7-4.8c-1.8-3.2-3.6-6.5-5.3-9.7c-1.7-3.3-3.5-6.5-5.1-9.8C554.4,375.8,552.8,372.5,551.2,369.2z"/>
		</g>
		<g>
			<path d="M636.1,312.2c-1.9,0.7-3.5,1.9-4.6,3.5c-1.1,1.6-1.7,3.5-1.7,5.5c-0.2,3.9,1.5,7.8,4.2,10.5c1.3,1.4,3.1,2.4,4.8,3.2
				c1.8,0.9,3.6,1.6,5.5,2.2c1.9,0.7,3.7,1.4,5.6,2.2c1.8,0.8,3.7,1.5,5.5,2.4c-3.7-1.4-7.5-2.8-11.3-4.1c-3.8-1.1-7.8-2.5-10.8-5.3
				c-1.5-1.4-2.6-3.2-3.4-5.2c-0.7-1.9-1.1-4-0.9-6.1c0.2-2.1,0.8-4.1,2.1-5.7C632.4,313.8,634.2,312.7,636.1,312.2z"/>
		</g>
		<g>
			<path d="M797.6,363.7c-1,4.2-2.7,8.3-4.7,12.1c-2,3.9-4.5,7.5-7.4,10.8l-1.1,1.2c-0.4,0.4-0.8,0.8-1.1,1.2
				c-0.8,0.8-1.5,1.6-2.3,2.3c-1.7,1.4-3.2,2.9-5.1,4.1c-0.9,0.6-1.7,1.3-2.7,1.8l-2.8,1.6c-0.9,0.6-1.9,1-2.9,1.4
				c-1,0.5-2,0.9-3,1.3c3.8-2.1,7.6-4.2,10.9-6.9c1.7-1.3,3.3-2.7,4.9-4.2c0.8-0.7,1.5-1.5,2.3-2.3c0.4-0.4,0.8-0.8,1.1-1.2l1-1.2
				c1.4-1.6,2.7-3.3,4-5l1.8-2.7l1.7-2.8c0.5-0.9,1-1.9,1.6-2.8c0.5-1,1-1.9,1.4-2.9C796.2,367.8,797,365.8,797.6,363.7z"/>
		</g>
		<g>
			<path d="M846.8,294.6c2.7-0.1,5.5-0.2,8.2-0.3c2.7,0,5.5-0.1,8.2-0.1l0.3,0l0.1,0.3l3.1,7.8l3,7.8c1,2.6,1.9,5.2,2.9,7.8
				c1,2.6,1.9,5.3,2.8,7.9c-1.1-2.5-2.3-5.1-3.3-7.7c-1.1-2.6-2.2-5.1-3.2-7.7l-3.1-7.8l-3-7.8l0.4,0.3c-2.7,0-5.5-0.1-8.2-0.1
				C852.3,294.9,849.6,294.8,846.8,294.6z"/>
		</g>
		<g>
			<path d="M965.8,334.6c-1.1,2.2-2.3,4.3-3.4,6.5l-3.5,6.4c-1.2,2.2-2.4,4.3-3.6,6.4l-3.6,6.4l0.1-0.2l0,7.2c0,2.4,0,4.8-0.1,7.2
				c-0.1,4.8-0.2,9.5-0.4,14.3c-0.2-4.8-0.3-9.5-0.4-14.3c-0.1-2.4-0.1-4.8-0.1-7.2l0-7.2l0-0.1l0.1-0.1l3.6-6.4
				c1.2-2.1,2.4-4.2,3.7-6.3l3.7-6.3C963.2,338.7,964.5,336.6,965.8,334.6z"/>
		</g>
	</g>
	<g>
		<g>
			<g>
				<path class="st2" d="M556.4,42.1v44.1h-16.7C539.7,86.2,532.8,60.3,556.4,42.1z"/>
				<path class="st2" d="M580.2,33.1v53.1h46.1c0,0,3.3-14-3.5-28.2C617,45.6,602.8,32.7,580.2,33.1z"/>
				<path class="st2" d="M624.7,92.1c0,0-8.6,30.7-44.5,29.4V92.1H624.7z"/>
				<path class="st2" d="M556.4,92.1v20.8c0,0-10.7-7.5-15.2-20.8H556.4z"/>
			</g>
			<g>
				<polygon class="st3" points="507.7,125.1 485.5,100.6 517.9,107.1 527.1,124.2 				"/>
				<polygon class="st3" points="654.5,125.1 676.7,100.6 644.2,107.1 635,124.2 				"/>
				<polygon class="st4" points="504.3,101.6 497.6,89.5 510.2,95.2 512.4,103.1 				"/>
				<polygon class="st4" points="493.8,124.8 482.4,117 496.2,116.5 501.7,122.6 				"/>
				<polygon class="st4" points="666.1,116.3 680,116.7 668.6,124.6 660.8,122.4 				"/>
				<polygon class="st4" points="651.5,95.3 664.1,89.5 657.5,101.7 649.5,103.2 				"/>
			</g>
			<g>
				<g>
					<g>
						<polygon class="st2" points="558.5,128.3 63.3,128.3 44.2,139.7 558.5,139.7 						"/>
					</g>
					<path class="st2" d="M637,76.5c0,0.2,0,0.3,0,0.5c0,22.6-13.5,42-32.8,50.7v6.1c4.5-0.4,9-0.8,13.5-1
						C635.9,121,648,100.4,648,77c0-4.2-0.4-8.4-1.2-12.4L637,76.5z"/>
					<path class="st2" d="M525.7,76.5c0,0.2,0,0.3,0,0.5c0,22.6,13.5,42,32.8,50.7v6.1c-4.5-0.4-9-0.8-13.5-1
						c-18.2-11.9-30.3-32.5-30.3-55.9c0-4.2,0.4-8.4,1.2-12.4L525.7,76.5z"/>
				</g>
				<polygon class="st2" points="604.2,128.3 1099.4,128.3 1118.5,139.7 604.2,139.7 				"/>
			</g>
		</g>
		<polygon class="st3" points="54.8,133.4 44.2,139.7 558.5,139.7 558.5,133.8 		"/>
		<polygon class="st3" points="1108.1,133.5 1118.5,139.7 604.2,139.7 604.2,133.6 		"/>
	</g>
	<g>
		<g>
			<g>
				<polyline class="st2" points="632.9,433.7 223.3,433.7 204.5,422.4 637.8,422.4 634.9,429.2 				"/>
				<polygon class="st2" points="631.5,422.4 630.1,427.2 628,433.7 939.4,433.7 958.2,422.4 				"/>
			</g>
		</g>
		<polygon class="st3" points="958.2,422.4 948.4,428.3 629.7,428.3 631.5,422.4 		"/>
		<polygon class="st3" points="214.3,428.3 204.5,422.4 637.8,422.4 635.3,428.3 		"/>
	</g>
</g>
<g>
	<path class="st2" d="M362.3,460.8c0-0.1,0.1-0.1,0.1-0.2c0.1-0.1,0.1-0.2,0.2-0.2c0.1-0.1,0.2-0.1,0.3-0.2s0.2-0.1,0.3-0.1h4.6
		c0.2,0,0.4,0.1,0.5,0.2s0.3,0.2,0.3,0.3l0.4,1l9.5,24.4c0.1,0.2,0.1,0.4-0.1,0.6c-0.1,0.2-0.4,0.2-0.7,0.2h-5.2
		c-0.3,0-0.5-0.1-0.6-0.2c-0.2-0.1-0.3-0.3-0.4-0.5c-0.2-0.6-0.5-1.2-0.7-1.8c-0.2-0.6-0.5-1.2-0.7-1.8h-9.6
		c-0.2,0.6-0.5,1.2-0.7,1.8c-0.2,0.6-0.5,1.2-0.7,1.8c-0.2,0.4-0.5,0.7-0.9,0.7h-5.3c-0.2,0-0.4-0.1-0.6-0.2
		c-0.2-0.1-0.2-0.3-0.1-0.5L362.3,460.8z M365.6,468.5c-0.2,0.6-0.5,1.3-0.7,2c-0.2,0.7-0.5,1.4-0.7,2.1c-0.2,0.7-0.5,1.4-0.7,2.1
		c-0.2,0.7-0.5,1.4-0.7,2h5.5L365.6,468.5z"/>
	<path class="st2" d="M377.2,460.8c0-0.2,0.1-0.4,0.2-0.6c0.2-0.1,0.4-0.2,0.6-0.2h19.4c0.2,0,0.4,0.1,0.6,0.2
		c0.2,0.1,0.3,0.3,0.3,0.6v4.5c0,0.2-0.1,0.4-0.2,0.6c-0.2,0.2-0.4,0.3-0.6,0.3h-6.2v19.7c0,0.2-0.1,0.4-0.2,0.6s-0.4,0.3-0.6,0.3
		h-5.3c-0.2,0-0.4-0.1-0.6-0.2c-0.2-0.2-0.3-0.4-0.3-0.6v-19.7h-6.2c-0.2,0-0.4-0.1-0.6-0.2c-0.2-0.2-0.2-0.4-0.2-0.7V460.8z"/>
	<path class="st2" d="M413.6,460.9c0-0.3,0.1-0.5,0.2-0.6c0.1-0.1,0.3-0.2,0.6-0.2h11.5c0.8,0,1.6,0.1,2.3,0.3
		c0.7,0.2,1.4,0.5,2,0.9s1.2,0.9,1.7,1.4s0.9,1.2,1.3,1.8c0.3,0.6,0.6,1.3,0.8,2s0.3,1.4,0.3,2.2c0,1.1-0.2,2.1-0.6,3.2
		c-0.4,1-0.9,2-1.7,2.8c-0.7,0.8-1.6,1.5-2.6,2c-1,0.5-2.1,0.8-3.3,0.8h-5.5v8.6c0,0.5-0.3,0.8-0.8,0.8h-5.3c-0.2,0-0.4-0.1-0.6-0.2
		s-0.2-0.3-0.2-0.6V460.9z M427.2,468.8c0-0.4-0.1-0.7-0.2-1.1c-0.1-0.4-0.3-0.7-0.5-1c-0.2-0.3-0.5-0.5-0.9-0.7
		c-0.3-0.2-0.7-0.3-1.2-0.3h-3.8v6h3.8c0.4,0,0.8-0.1,1.2-0.3s0.6-0.4,0.9-0.7c0.2-0.3,0.4-0.6,0.5-1
		C427.1,469.5,427.2,469.1,427.2,468.8z"/>
	<path class="st2" d="M445,476.1c0,0.9,0.1,1.6,0.4,2.3c0.2,0.6,0.6,1.1,1,1.5c0.4,0.4,0.9,0.7,1.4,0.9s1.1,0.3,1.7,0.3
		c0.6,0,1.2-0.1,1.7-0.3c0.5-0.2,1-0.5,1.4-0.9c0.4-0.4,0.7-0.9,1-1.5c0.2-0.6,0.4-1.3,0.4-2.1v-15.3c0-0.2,0.1-0.4,0.2-0.6
		c0.1-0.2,0.4-0.2,0.6-0.2h5.3c0.3,0,0.5,0.1,0.6,0.2c0.2,0.2,0.2,0.3,0.2,0.5V476c0,2.1-0.3,3.9-0.9,5.3c-0.6,1.4-1.4,2.6-2.5,3.4
		c-1,0.9-2.3,1.5-3.6,1.9s-2.8,0.6-4.3,0.6c-1.5,0-3-0.2-4.3-0.6c-1.4-0.4-2.6-1-3.6-1.9c-1-0.9-1.9-2-2.5-3.5
		c-0.6-1.4-0.9-3.2-0.9-5.2v-15.2c0-0.2,0.1-0.4,0.2-0.5c0.1-0.2,0.3-0.2,0.5-0.2h5.4c0.2,0,0.4,0.1,0.6,0.2
		c0.2,0.2,0.3,0.3,0.3,0.6V476.1z"/>
	<path class="st2" d="M466.1,460.9c0-0.3,0.1-0.5,0.2-0.6s0.3-0.2,0.6-0.2h11.6c1.2,0,2.4,0.2,3.5,0.7c1.1,0.5,2,1.1,2.8,1.9
		c0.8,0.8,1.4,1.7,1.9,2.8c0.5,1.1,0.7,2.2,0.7,3.4c0,0.8-0.1,1.6-0.3,2.3c-0.2,0.7-0.5,1.4-0.9,2.1c-0.4,0.6-0.9,1.2-1.4,1.7
		c-0.5,0.5-1.1,1-1.8,1.3l4.6,8.7c0.1,0.2,0.2,0.4,0.3,0.6c0.1,0.2,0.2,0.4,0.2,0.6c0,0.2-0.1,0.3-0.2,0.4s-0.3,0.2-0.5,0.2h-6.2
		c-0.2,0-0.4-0.1-0.5-0.2c-0.2-0.1-0.3-0.3-0.3-0.5l-4.4-8.2H473v8.1c0,0.5-0.3,0.8-0.8,0.8h-5.3c-0.2,0-0.4-0.1-0.6-0.2
		s-0.2-0.3-0.2-0.6V460.9z M480.2,468.9c0-0.4-0.1-0.7-0.2-1.1c-0.1-0.4-0.3-0.7-0.6-1c-0.2-0.3-0.5-0.6-0.9-0.8
		c-0.3-0.2-0.7-0.3-1.1-0.4c-0.3,0-0.7,0-0.9-0.1c-0.3,0-0.6,0-1,0H473v6.6h3.3c0.2,0,0.4,0,0.6,0c0.2,0,0.4,0,0.6-0.1
		c0.4,0,0.8-0.2,1.1-0.4c0.3-0.2,0.6-0.4,0.8-0.7c0.2-0.3,0.4-0.6,0.5-1C480.1,469.6,480.2,469.3,480.2,468.9z"/>
	<path class="st2" d="M514.5,473.4c0,1.3-0.2,2.5-0.5,3.6c-0.3,1.1-0.8,2.2-1.4,3.2c-0.6,1-1.3,1.9-2.2,2.7
		c-0.8,0.8-1.8,1.5-2.8,2.1c-1,0.6-2.1,1-3.3,1.3c-1.2,0.3-2.4,0.5-3.7,0.5h-8.9c-0.2,0-0.4,0-0.6-0.1c-0.2-0.1-0.3-0.3-0.3-0.6
		v-25.1c0-0.3,0.1-0.5,0.2-0.6c0.1-0.2,0.3-0.2,0.6-0.2h8.9c1.3,0,2.5,0.2,3.6,0.5s2.3,0.8,3.3,1.3c1,0.6,1.9,1.3,2.8,2.1
		c0.8,0.8,1.6,1.7,2.2,2.7c0.6,1,1.1,2.1,1.4,3.2S514.5,472.2,514.5,473.4z M498,466.5v13.8h1.5c0.3,0,0.5,0,0.8,0
		c0.3,0,0.5,0,0.8-0.1c0.9-0.1,1.7-0.3,2.5-0.7c0.8-0.4,1.5-0.8,2-1.4c0.6-0.6,1-1.3,1.4-2.1c0.3-0.8,0.5-1.7,0.5-2.6
		c0-1-0.2-1.9-0.6-2.8c-0.4-0.8-0.9-1.6-1.5-2.2c-0.6-0.6-1.4-1.1-2.3-1.4c-0.9-0.3-1.8-0.5-2.8-0.5H498z"/>
	<path class="st2" d="M526.1,476.1c0,0.9,0.1,1.6,0.4,2.3c0.2,0.6,0.6,1.1,1,1.5c0.4,0.4,0.9,0.7,1.4,0.9s1.1,0.3,1.7,0.3
		c0.6,0,1.2-0.1,1.7-0.3c0.5-0.2,1-0.5,1.4-0.9c0.4-0.4,0.7-0.9,1-1.5c0.2-0.6,0.4-1.3,0.4-2.1v-15.3c0-0.2,0.1-0.4,0.2-0.6
		c0.1-0.2,0.4-0.2,0.6-0.2h5.3c0.3,0,0.5,0.1,0.6,0.2c0.2,0.2,0.2,0.3,0.2,0.5V476c0,2.1-0.3,3.9-0.9,5.3c-0.6,1.4-1.4,2.6-2.5,3.4
		c-1,0.9-2.3,1.5-3.6,1.9s-2.8,0.6-4.3,0.6c-1.5,0-3-0.2-4.3-0.6c-1.4-0.4-2.6-1-3.6-1.9c-1-0.9-1.9-2-2.5-3.5
		c-0.6-1.4-0.9-3.2-0.9-5.2v-15.2c0-0.2,0.1-0.4,0.2-0.5c0.1-0.2,0.3-0.2,0.5-0.2h5.4c0.2,0,0.4,0.1,0.6,0.2
		c0.2,0.2,0.3,0.3,0.3,0.6V476.1z"/>
	<path class="st2" d="M547.1,460.9c0-0.3,0.1-0.5,0.2-0.6s0.3-0.2,0.6-0.2h17.9c0.3,0,0.5,0.1,0.6,0.2c0.1,0.2,0.2,0.4,0.2,0.6v4.5
		c0,0.2-0.1,0.4-0.2,0.6c-0.1,0.2-0.4,0.3-0.6,0.3h-11.7v4.5h9c0.2,0,0.4,0.1,0.6,0.2c0.1,0.1,0.2,0.3,0.2,0.5v3.9
		c0,0.2-0.1,0.3-0.2,0.5c-0.1,0.2-0.3,0.2-0.6,0.2h-9v4.6h12.1c0.5,0,0.8,0.3,0.8,0.8v4.5c0,0.1,0,0.2-0.1,0.3
		c0,0.3-0.3,0.5-0.7,0.5h-18.2c-0.2,0-0.4-0.1-0.6-0.2s-0.2-0.3-0.2-0.6V460.9z"/>
	<path class="st2" d="M589.6,476.1c0,0.9,0.1,1.6,0.4,2.3c0.2,0.6,0.6,1.1,1,1.5c0.4,0.4,0.9,0.7,1.4,0.9s1.1,0.3,1.7,0.3
		c0.6,0,1.2-0.1,1.7-0.3c0.5-0.2,1-0.5,1.4-0.9c0.4-0.4,0.7-0.9,1-1.5c0.2-0.6,0.4-1.3,0.4-2.1v-15.3c0-0.2,0.1-0.4,0.2-0.6
		c0.1-0.2,0.4-0.2,0.6-0.2h5.3c0.3,0,0.5,0.1,0.6,0.2c0.2,0.2,0.2,0.3,0.2,0.5V476c0,2.1-0.3,3.9-0.9,5.3c-0.6,1.4-1.4,2.6-2.5,3.4
		c-1,0.9-2.3,1.5-3.6,1.9s-2.8,0.6-4.3,0.6c-1.5,0-3-0.2-4.3-0.6c-1.4-0.4-2.6-1-3.6-1.9c-1-0.9-1.9-2-2.5-3.5
		c-0.6-1.4-0.9-3.2-0.9-5.2v-15.2c0-0.2,0.1-0.4,0.2-0.5c0.1-0.2,0.3-0.2,0.5-0.2h5.4c0.2,0,0.4,0.1,0.6,0.2
		c0.2,0.2,0.3,0.3,0.3,0.6V476.1z"/>
	<path class="st2" d="M610.7,460.8c0-0.2,0.1-0.4,0.2-0.6c0.1-0.2,0.3-0.2,0.6-0.2h5.9c0.2,0,0.3,0,0.5,0.1c0.2,0.1,0.3,0.2,0.5,0.4
		c1.5,2.5,3,4.9,4.5,7.3c1.5,2.4,3,4.8,4.6,7.3v-14.4c0-0.2,0.1-0.4,0.3-0.5s0.3-0.2,0.5-0.2h5.1c0.3,0,0.5,0.1,0.6,0.2
		c0.2,0.1,0.3,0.3,0.3,0.6v25.2c0,0.2-0.1,0.4-0.2,0.5c-0.1,0.1-0.3,0.2-0.6,0.2h-5.7c-0.2,0-0.3-0.1-0.4-0.2s-0.2-0.3-0.4-0.4
		c-1.6-2.6-3.2-5.2-4.7-7.8c-1.6-2.6-3.1-5.2-4.8-7.8V486c0,0.3-0.1,0.5-0.2,0.6c-0.1,0.1-0.3,0.2-0.6,0.2h-5.1
		c-0.3,0-0.5-0.1-0.6-0.2c-0.1-0.1-0.2-0.3-0.2-0.5V460.8z"/>
	<path class="st2" d="M640.2,460.8c0-0.2,0.1-0.4,0.2-0.6c0.1-0.2,0.3-0.2,0.6-0.2h5.3c0.2,0,0.4,0.1,0.6,0.2s0.3,0.3,0.3,0.6V486
		c0,0.5-0.3,0.8-0.9,0.8H641c-0.5,0-0.8-0.3-0.8-0.8V460.8z"/>
	<path class="st2" d="M660.3,486.4c-0.1-0.2-0.2-0.4-0.4-0.7c-0.1-0.2-0.2-0.5-0.3-0.7l-9.2-24.2c0-0.1,0-0.1,0-0.2c0,0,0-0.1,0-0.1
		c0-0.3,0.2-0.5,0.7-0.5h5.8c0.5,0,0.8,0.2,0.9,0.7l5.5,16.4c0.5-1.4,1-2.7,1.4-4.1c0.5-1.4,0.9-2.7,1.3-4.1s0.9-2.7,1.3-4.1
		c0.4-1.4,0.9-2.7,1.4-4.1c0.2-0.5,0.5-0.7,1-0.7h5.7c0.3,0,0.5,0.1,0.6,0.2c0.1,0.1,0.2,0.2,0.2,0.4c0,0.1,0,0.2,0,0.2v0.1
		l-9.3,24.2c-0.1,0.2-0.1,0.4-0.2,0.6c-0.1,0.2-0.2,0.4-0.3,0.6c-0.1,0.2-0.2,0.3-0.4,0.4c-0.1,0.1-0.3,0.2-0.5,0.2H661
		C660.6,486.8,660.4,486.7,660.3,486.4z"/>
	<path class="st2" d="M679.4,460.9c0-0.3,0.1-0.5,0.2-0.6s0.3-0.2,0.6-0.2H698c0.3,0,0.5,0.1,0.6,0.2c0.1,0.2,0.2,0.4,0.2,0.6v4.5
		c0,0.2-0.1,0.4-0.2,0.6c-0.1,0.2-0.4,0.3-0.6,0.3h-11.7v4.5h9c0.2,0,0.4,0.1,0.6,0.2c0.1,0.1,0.2,0.3,0.2,0.5v3.9
		c0,0.2-0.1,0.3-0.2,0.5c-0.1,0.2-0.3,0.2-0.6,0.2h-9v4.6h12.1c0.5,0,0.8,0.3,0.8,0.8v4.5c0,0.1,0,0.2-0.1,0.3
		c0,0.3-0.3,0.5-0.7,0.5h-18.2c-0.2,0-0.4-0.1-0.6-0.2s-0.2-0.3-0.2-0.6V460.9z"/>
	<path class="st2" d="M703.7,460.9c0-0.3,0.1-0.5,0.2-0.6s0.3-0.2,0.6-0.2h11.6c1.2,0,2.4,0.2,3.5,0.7c1.1,0.5,2,1.1,2.8,1.9
		c0.8,0.8,1.4,1.7,1.9,2.8c0.5,1.1,0.7,2.2,0.7,3.4c0,0.8-0.1,1.6-0.3,2.3c-0.2,0.7-0.5,1.4-0.9,2.1c-0.4,0.6-0.9,1.2-1.4,1.7
		c-0.5,0.5-1.1,1-1.8,1.3l4.6,8.7c0.1,0.2,0.2,0.4,0.3,0.6c0.1,0.2,0.2,0.4,0.2,0.6c0,0.2-0.1,0.3-0.2,0.4s-0.3,0.2-0.5,0.2h-6.2
		c-0.2,0-0.4-0.1-0.5-0.2c-0.2-0.1-0.3-0.3-0.3-0.5l-4.4-8.2h-2.9v8.1c0,0.5-0.3,0.8-0.8,0.8h-5.3c-0.2,0-0.4-0.1-0.6-0.2
		s-0.2-0.3-0.2-0.6V460.9z M717.8,468.9c0-0.4-0.1-0.7-0.2-1.1c-0.1-0.4-0.3-0.7-0.6-1c-0.2-0.3-0.5-0.6-0.9-0.8
		c-0.3-0.2-0.7-0.3-1.1-0.4c-0.3,0-0.7,0-0.9-0.1c-0.3,0-0.6,0-1,0h-2.5v6.6h3.3c0.2,0,0.4,0,0.6,0c0.2,0,0.4,0,0.6-0.1
		c0.4,0,0.8-0.2,1.1-0.4c0.3-0.2,0.6-0.4,0.8-0.7c0.2-0.3,0.4-0.6,0.5-1C717.7,469.6,717.8,469.3,717.8,468.9z"/>
	<path class="st2" d="M732.4,478.1c0.2,0.2,0.5,0.4,0.8,0.7s0.7,0.6,1.1,0.8c0.6,0.4,1.2,0.7,1.8,1c0.6,0.2,1.2,0.3,1.9,0.3
		c0.6,0,1.1-0.1,1.5-0.2c0.4-0.1,0.7-0.3,1-0.5c0.2-0.2,0.4-0.5,0.5-0.8s0.2-0.6,0.2-1c0-0.4-0.1-0.7-0.4-1c-0.3-0.3-0.6-0.6-1-0.8
		c-0.4-0.2-0.8-0.4-1.3-0.6s-0.8-0.3-1.2-0.4c-1.4-0.5-2.7-1-3.8-1.6c-1.1-0.6-2-1.2-2.7-1.9c-0.7-0.7-1.3-1.5-1.6-2.4
		c-0.4-0.9-0.5-1.8-0.5-2.9c0-1.1,0.2-2.1,0.7-3c0.5-0.9,1.1-1.7,1.9-2.3c0.8-0.6,1.8-1.1,3-1.5c1.2-0.4,2.5-0.5,3.9-0.5
		c1.1,0,2.1,0.1,3.1,0.4c1,0.2,2,0.6,3,1.2c0.4,0.2,0.8,0.5,1.2,0.7c0.4,0.3,0.7,0.5,1,0.7c0.3,0.2,0.5,0.5,0.7,0.7
		c0.2,0.2,0.2,0.4,0.2,0.6c0,0.2,0,0.3-0.1,0.4s-0.2,0.3-0.4,0.4l-2.8,2.9c-0.2,0.2-0.4,0.3-0.6,0.3c-0.2,0-0.3,0-0.5-0.1
		c-0.1-0.1-0.3-0.2-0.5-0.4l-0.2-0.1c-0.2-0.2-0.5-0.4-0.8-0.6c-0.3-0.2-0.6-0.4-0.9-0.6c-0.3-0.2-0.7-0.3-1.1-0.4
		c-0.4-0.1-0.8-0.2-1.1-0.2c-0.4,0-0.8,0-1.1,0.1c-0.3,0.1-0.7,0.2-0.9,0.3c-0.3,0.1-0.5,0.3-0.6,0.6c-0.2,0.2-0.2,0.5-0.2,0.9
		s0.1,0.6,0.3,0.9c0.2,0.2,0.4,0.5,0.8,0.7c0.3,0.2,0.8,0.4,1.3,0.6s1.1,0.4,1.7,0.6c1.3,0.4,2.4,0.9,3.5,1.3c1.1,0.5,2,1,2.8,1.6
		c0.8,0.6,1.4,1.4,1.8,2.3c0.4,0.9,0.7,1.9,0.7,3.2c0,1.3-0.3,2.5-0.8,3.6c-0.5,1.1-1.3,2-2.2,2.7c-0.9,0.8-2,1.3-3.3,1.8
		c-1.3,0.4-2.6,0.6-4.1,0.6c-1.4,0-2.7-0.2-4.1-0.7s-2.6-1.2-3.7-2c-0.5-0.3-0.9-0.7-1.2-1c-0.3-0.3-0.6-0.6-0.8-0.8l-0.1-0.1
		c0,0,0,0,0,0c0,0,0,0,0,0c0,0,0,0,0,0c0,0,0,0,0,0c-0.3-0.3-0.4-0.5-0.4-0.7c0-0.2,0.1-0.4,0.4-0.7l3.1-3c0.3-0.2,0.5-0.3,0.6-0.3
		c0.1,0,0.2,0,0.3,0.1C732.1,477.9,732.2,478,732.4,478.1z"/>
	<path class="st2" d="M752.7,460.8c0-0.2,0.1-0.4,0.2-0.6c0.1-0.2,0.3-0.2,0.6-0.2h5.3c0.2,0,0.4,0.1,0.6,0.2s0.3,0.3,0.3,0.6V486
		c0,0.5-0.3,0.8-0.9,0.8h-5.3c-0.5,0-0.8-0.3-0.8-0.8V460.8z"/>
	<path class="st2" d="M764,460.8c0-0.2,0.1-0.4,0.2-0.6c0.2-0.1,0.4-0.2,0.6-0.2h19.4c0.2,0,0.4,0.1,0.6,0.2
		c0.2,0.1,0.3,0.3,0.3,0.6v4.5c0,0.2-0.1,0.4-0.2,0.6c-0.2,0.2-0.4,0.3-0.6,0.3H778v19.7c0,0.2-0.1,0.4-0.2,0.6s-0.4,0.3-0.6,0.3
		h-5.3c-0.2,0-0.4-0.1-0.6-0.2c-0.2-0.2-0.3-0.4-0.3-0.6v-19.7h-6.2c-0.2,0-0.4-0.1-0.6-0.2c-0.2-0.2-0.2-0.4-0.2-0.7V460.8z"/>
	<path class="st2" d="M799.2,469.9l4.3-9.3c0.1-0.1,0.1-0.2,0.2-0.3c0-0.1,0.1-0.1,0.1-0.1c0,0,0.1,0,0.2-0.1c0.1,0,0.1,0,0.2,0h6.9
		c0.1,0,0.2,0,0.2,0.1c0.1,0.1,0.1,0.1,0.1,0.2c0,0.1-0.1,0.3-0.3,0.5l-8.5,15.1v10.1c0,0.6-0.3,0.8-0.8,0.8h-5.4
		c-0.2,0-0.4-0.1-0.6-0.2c-0.1-0.1-0.2-0.4-0.2-0.6v-10.1l-8.5-15.1c-0.2-0.2-0.2-0.3-0.2-0.5c0-0.1,0-0.1,0.1-0.2
		c0-0.1,0.1-0.1,0.2-0.1h6.9c0.1,0,0.1,0,0.2,0c0,0,0.1,0,0.1,0.1c0,0,0.1,0.1,0.1,0.1c0,0.1,0.1,0.2,0.2,0.3L799.2,469.9z"/>
</g>
<text transform="matrix(1 0 0 1 270.0973 723.3892)" class="st2" style="font-family:'Cocogoose'; font-size:36px;">AT PURDUE UNIVERSITY</text>
</svg>
